STARTFONT 2.3
FONT -FontForge-Monofett-Book-R-Normal--18-180-72-72-P-96-ISO10646-1
SIZE 18 72 72  2
FONTBOUNDINGBOX 12 21 0 -3
COMMENT "Generated by fontforge, http://fontforge.sourceforge.net"
COMMENT "Copyright (c) 2011 by vernon adams. All rights reserved."
STARTPROPERTIES 41
FOUNDRY "FontForge"
FAMILY_NAME "Monofett"
WEIGHT_NAME "Book"
SLANT "R"
SETWIDTH_NAME "Normal"
ADD_STYLE_NAME ""
PIXEL_SIZE 18
POINT_SIZE 180
RESOLUTION_X 72
RESOLUTION_Y 72
SPACING "P"
AVERAGE_WIDTH 96
CHARSET_REGISTRY "ISO10646"
CHARSET_ENCODING "1"
FONTNAME_REGISTRY ""
CHARSET_COLLECTIONS "ISO8859-2 ISO8859-9 ISO8859-4 ISO10646-1"
BITS_PER_PIXEL 2
FONT_NAME "Monofett"
FACE_NAME "Monofett"
COPYRIGHT "Copyright (c) 2011 by vernon adams. All rights reserved."
FONT_VERSION "1.000"
FONT_ASCENT 14
FONT_DESCENT 4
UNDERLINE_POSITION -2
UNDERLINE_THICKNESS 1
X_HEIGHT 11
CAP_HEIGHT 11
RAW_ASCENT 799
RAW_DESCENT 200
NORM_SPACE 3
RELATIVE_WEIGHT 40
RELATIVE_SETWIDTH 50
SUPERSCRIPT_X 0
SUPERSCRIPT_Y 8
SUPERSCRIPT_SIZE 11
SUBSCRIPT_X 0
SUBSCRIPT_Y 2
SUBSCRIPT_SIZE 11
FIGURE_WIDTH 10
AVG_LOWERCASE_WIDTH 100
AVG_UPPERCASE_WIDTH 100
ENDPROPERTIES
CHARS 409
STARTCHAR uni000D
ENCODING 13
SWIDTH 144 0
DWIDTH 3 0
BBX 1 1 0 0
BITMAP
00
ENDCHAR
STARTCHAR space
ENCODING 32
SWIDTH 144 0
DWIDTH 3 0
BBX 1 1 0 0
BITMAP
00
ENDCHAR
STARTCHAR exclam
ENCODING 33
SWIDTH 424 0
DWIDTH 8 0
BBX 8 12 0 0
BITMAP
1EE0
7DBC
FDBE
FDBE
FEBE
FEBE
FEFE
FEBE
FFFE
FFFE
7FFC
1BE0
ENDCHAR
STARTCHAR quotedbl
ENCODING 34
SWIDTH 424 0
DWIDTH 8 0
BBX 8 12 0 0
BITMAP
1AA0
7D3C
FD3E
FFFE
FFFE
FFFE
FFFE
FFFE
FFFE
FFFE
7FFC
1BE0
ENDCHAR
STARTCHAR numbersign
ENCODING 35
SWIDTH 482 0
DWIDTH 9 0
BBX 9 12 0 0
BITMAP
1FF800
7EEF00
FD8F80
F84B80
FC9F80
F85F80
F85F80
FEAF80
FFFF80
FFFF80
7FFF00
1BF800
ENDCHAR
STARTCHAR dollar
ENCODING 36
SWIDTH 578 0
DWIDTH 10 0
BBX 11 12 0 0
BITMAP
1FEF80
7E4BE0
FC95F4
F9DFF4
FC46F4
FF99F4
FED9F4
FD02F4
FFDFF4
FFFFF4
7FFFE0
1BFF80
ENDCHAR
STARTCHAR percent
ENCODING 37
SWIDTH 578 0
DWIDTH 10 0
BBX 11 12 0 0
BITMAP
1FFF80
75ABE0
E55BF4
E08FF4
FF9EF4
FF6534
FF7234
FF79B4
FFFFF4
FFFFF4
7FFFE0
1BFF80
ENDCHAR
STARTCHAR ampersand
ENCODING 38
SWIDTH 578 0
DWIDTH 10 0
BBX 11 12 0 0
BITMAP
1FAB80
7D57E0
FDBFF4
FDBCF4
FE14B4
FDBCF4
FDBCF4
FE01F4
FFFFF4
FFFFF4
7FFFE0
1BFF80
ENDCHAR
STARTCHAR quotesingle
ENCODING 39
SWIDTH 424 0
DWIDTH 8 0
BBX 8 12 0 0
BITMAP
1FE0
7DBC
FDBE
FFFE
FFFE
FFFE
FFFE
FFFE
FFFE
FFFE
7FFC
1BE0
ENDCHAR
STARTCHAR parenleft
ENCODING 40
SWIDTH 483 0
DWIDTH 9 0
BBX 9 12 0 0
BITMAP
1FA900
7C6F00
FCFF80
FDFF80
FDFF80
FDFF80
FDFF80
FCFF80
FC6F80
FFFF80
7FFF00
1BF800
ENDCHAR
STARTCHAR parenright
ENCODING 41
SWIDTH 483 0
DWIDTH 9 0
BBX 9 12 0 0
BITMAP
1EB900
7D5F00
FFDF80
FFDF80
FFDF80
FFDF80
FFDF80
FFDF80
FD1F80
FFFF80
7FFF00
1BF800
ENDCHAR
STARTCHAR asterisk
ENCODING 42
SWIDTH 428 0
DWIDTH 8 0
BBX 8 12 0 0
BITMAP
1FE4
7C5C
F41A
F82E
FDAE
FFFE
FFFE
FFFE
FFFE
FFFE
7FFC
1BE0
ENDCHAR
STARTCHAR plus
ENCODING 43
SWIDTH 428 0
DWIDTH 8 0
BBX 8 12 0 0
BITMAP
1FE4
7DBC
F55E
F96E
FDBE
FFFE
FFFE
FFFE
FFFE
FFFE
7FFC
1BE0
ENDCHAR
STARTCHAR comma
ENCODING 44
SWIDTH 428 0
DWIDTH 8 0
BBX 8 12 0 0
BITMAP
1FE4
7FFC
FFFE
FFFE
FFFE
FFFE
FFFE
FD7E
FEBE
FFFE
7FFC
1BE0
ENDCHAR
STARTCHAR hyphen
ENCODING 45
SWIDTH 428 0
DWIDTH 8 0
BBX 8 12 0 0
BITMAP
1FE4
7FFC
FFFE
F42E
FFFE
FFFE
FFFE
FFFE
FFFE
FFFE
7FFC
1BE0
ENDCHAR
STARTCHAR period
ENCODING 46
SWIDTH 428 0
DWIDTH 8 0
BBX 8 12 0 0
BITMAP
1FE4
7FFC
FFFE
FFFE
FFFE
FFFE
FFFE
FDBE
FFFE
FFFE
7FFC
1BE0
ENDCHAR
STARTCHAR slash
ENCODING 47
SWIDTH 428 0
DWIDTH 8 0
BBX 8 12 0 0
BITMAP
1FE4
7F3C
FE7E
FE7E
FDBE
FDBE
FCFE
FCFE
FEFE
FFFE
7FFC
1BE0
ENDCHAR
STARTCHAR zero
ENCODING 48
SWIDTH 578 0
DWIDTH 10 0
BBX 11 12 0 0
BITMAP
1FAA80
7C54E0
F9FDB4
F9FDB4
F9FDB4
F9FDB4
F9FDB4
FD00F4
FFFFF4
FFFFF4
7FFFE0
1BFF80
ENDCHAR
STARTCHAR one
ENCODING 49
SWIDTH 578 0
DWIDTH 10 0
BBX 11 12 0 0
BITMAP
1FEF80
7F0FE0
FFCFF4
FFCFF4
FFCFF4
FFCFF4
FFCFF4
FFCFF4
FFFFF4
FFFFF4
7FFFE0
1BFF80
ENDCHAR
STARTCHAR two
ENCODING 50
SWIDTH 578 0
DWIDTH 10 0
BBX 11 12 0 0
BITMAP
1FAB80
7C54E0
FEFCF4
FFFCF4
FD01F4
FDFFF4
F9FFF4
FC01F4
FFFFF4
FFFFF4
7FFFE0
1BFF80
ENDCHAR
STARTCHAR three
ENCODING 51
SWIDTH 578 0
DWIDTH 10 0
BBX 11 12 0 0
BITMAP
1FAB80
7855E0
FAFCF4
FFFCF4
FF54F4
FFFCF4
FAFCF4
F801F4
FFFFF4
FFFFF4
7FFFE0
1BFF80
ENDCHAR
STARTCHAR four
ENCODING 52
SWIDTH 578 0
DWIDTH 10 0
BBX 11 12 0 0
BITMAP
1EFB80
7DF6E0
FDF6F4
FDF6F4
FDF6F4
FD51B4
FFA6F4
FFF6F4
FFFFF4
FFFFF4
7FFFE0
1BFF80
ENDCHAR
STARTCHAR five
ENCODING 53
SWIDTH 578 0
DWIDTH 10 0
BBX 11 12 0 0
BITMAP
1FAA80
7C55E0
FCFFF4
FCAAF4
FD54F4
FFFDB4
FEFDB4
FD01F4
FFFFF4
FFFFF4
7FFFE0
1BFF80
ENDCHAR
STARTCHAR six
ENCODING 54
SWIDTH 578 0
DWIDTH 10 0
BBX 11 12 0 0
BITMAP
1FAA80
7C55E0
FCFFF4
FCAAF4
FC65B4
FCFDB4
FCFDB4
FD00B4
FFFFF4
FFFFF4
7FFFE0
1BFF80
ENDCHAR
STARTCHAR seven
ENCODING 55
SWIDTH 578 0
DWIDTH 10 0
BBX 11 12 0 0
BITMAP
1FAA80
7E52E0
FFF3F4
FFE7F4
FFDBF4
FFCFF4
FF9FF4
FF6FF4
FFFFF4
FFFFF4
7FFFE0
1BFF80
ENDCHAR
STARTCHAR eight
ENCODING 56
SWIDTH 578 0
DWIDTH 10 0
BBX 11 12 0 0
BITMAP
1FAA80
7C54E0
F9FDB4
F9BDB4
FC54F4
F9FDB4
F9FDB4
FD00F4
FFFFF4
FFFFF4
7FFFE0
1BFF80
ENDCHAR
STARTCHAR nine
ENCODING 57
SWIDTH 578 0
DWIDTH 10 0
BBX 11 12 0 0
BITMAP
1FAB80
7854E0
F9FDB4
F9FDB4
F854B4
FFA9B4
FFFDF4
FD01F4
FFFFF4
FFFFF4
7FFFE0
1BFF80
ENDCHAR
STARTCHAR colon
ENCODING 58
SWIDTH 428 0
DWIDTH 8 0
BBX 8 12 0 0
BITMAP
1FE4
7FFC
FFFE
FFFE
FEBE
FEBE
FFFE
FDBE
FFFE
FFFE
7FFC
1BE0
ENDCHAR
STARTCHAR semicolon
ENCODING 59
SWIDTH 428 0
DWIDTH 8 0
BBX 8 12 0 0
BITMAP
1FE4
7FFC
FFFE
FFFE
FEBE
FEBE
FFFE
FD7E
FEBE
FFFE
7FFC
1BE0
ENDCHAR
STARTCHAR less
ENCODING 60
SWIDTH 482 0
DWIDTH 9 0
BBX 9 13 0 1
BITMAP
06A400
3FFE00
BFFF40
FFEF80
FF6F80
FEBF80
FAFF80
FAFF80
FEBF80
FF6F80
FFFF80
7FFF00
1FF800
ENDCHAR
STARTCHAR equal
ENCODING 61
SWIDTH 482 0
DWIDTH 9 0
BBX 9 13 0 1
BITMAP
06A400
3FFE00
BFFF40
FFFF80
FFFF80
FEAF80
FFFF80
FD5F80
FFFF80
FFFF80
FFFF80
7FFF00
1FF900
ENDCHAR
STARTCHAR greater
ENCODING 62
SWIDTH 482 0
DWIDTH 9 0
BBX 9 13 0 1
BITMAP
06A400
3FFE00
BFFF40
FEFF80
FEBF80
FF6F80
FFDF80
FFDF80
FF6F80
FEBF80
FFFF80
7FFF00
1FF900
ENDCHAR
STARTCHAR question
ENCODING 63
SWIDTH 578 0
DWIDTH 10 0
BBX 11 12 0 0
BITMAP
1FFF80
7E55E0
FEFDF4
FFFDF4
FFD5F4
FFDFF4
FFEFF4
FFCFF4
FFFFF4
FFFFF4
7FFFE0
1BFF80
ENDCHAR
STARTCHAR at
ENCODING 64
SWIDTH 578 0
DWIDTH 10 0
BBX 11 12 0 0
BITMAP
1FAB80
7569A0
E79B74
EBB674
EB9664
E9A664
EA5664
F7FD74
F95FF4
FFFFF4
7FFFE0
1BFF80
ENDCHAR
STARTCHAR A
ENCODING 65
SWIDTH 578 0
DWIDTH 10 0
BBX 11 12 0 0
BITMAP
1FAF80
7D55E0
FDF9F4
FCFCF4
FCA4F4
FCA8F4
F9FDB4
F9FDB4
FFFFF4
FFFFF4
7FFFE0
1BFF80
ENDCHAR
STARTCHAR B
ENCODING 66
SWIDTH 578 0
DWIDTH 10 0
BBX 11 12 0 0
BITMAP
1AAB80
7855E0
F9FCF4
F9F8F4
F855F4
F9FCF4
F9FCF4
F801F4
FFFFF4
FFFFF4
7FFFE0
1BFF80
ENDCHAR
STARTCHAR C
ENCODING 67
SWIDTH 578 0
DWIDTH 10 0
BBX 11 12 0 0
BITMAP
1FAB80
7C56E0
F9FFF4
F9FFF4
F9FFF4
F9FFF4
F9FFF4
FC02F4
FFFFF4
FFFFF4
7FFFE0
1BFF80
ENDCHAR
STARTCHAR D
ENCODING 68
SWIDTH 578 0
DWIDTH 10 0
BBX 11 12 0 0
BITMAP
1AAA80
7C54A0
FDFDB4
FDFDB4
FDFDB4
FDFDB4
FDFDB4
FC00F4
FFFFF4
FFFFF4
7FFFE0
1BFF80
ENDCHAR
STARTCHAR E
ENCODING 69
SWIDTH 578 0
DWIDTH 10 0
BBX 11 12 0 0
BITMAP
1FAA80
7E55E0
FEBFF4
FEBFF4
FE02F4
FEBFF4
FEBFF4
FE00F4
FFFFF4
FFFFF4
7FFFE0
1BFF80
ENDCHAR
STARTCHAR F
ENCODING 70
SWIDTH 578 0
DWIDTH 10 0
BBX 11 12 0 0
BITMAP
1FAA80
7D55E0
FDBFF4
FD6BF4
FD16F4
FDBFF4
FDBFF4
FDBFF4
FFFFF4
FFFFF4
7FFFE0
1BFF80
ENDCHAR
STARTCHAR G
ENCODING 71
SWIDTH 578 0
DWIDTH 10 0
BBX 11 12 0 0
BITMAP
1FAA80
7D55E0
FCFFF4
FCFFF4
FCF5B4
FCF9B4
FCFDB4
FD00F4
FFFFF4
FFFFF4
7FFFE0
1BFF80
ENDCHAR
STARTCHAR H
ENCODING 72
SWIDTH 578 0
DWIDTH 10 0
BBX 11 12 0 0
BITMAP
1AFE40
7DFDA0
FDFDB4
FCA9B4
FC54B4
FDFDB4
FDFDB4
FDFDB4
FFFFF4
FFFFF4
7FFFE0
1BFF80
ENDCHAR
STARTCHAR I
ENCODING 73
SWIDTH 578 0
DWIDTH 10 0
BBX 11 12 0 0
BITMAP
1EAA80
7D45E0
FFDFF4
FFDFF4
FFDFF4
FFDFF4
FFDFF4
FD00B4
FFFFF4
FFFFF4
7FFFE0
1BFF80
ENDCHAR
STARTCHAR J
ENCODING 74
SWIDTH 578 0
DWIDTH 10 0
BBX 11 12 0 0
BITMAP
1FFB80
7FF3E0
FFF3F4
FFF3F4
FFF3F4
FFF3F4
FFF3F4
FF07F4
FFFFF4
FFFFF4
7FFFE0
1BFF80
ENDCHAR
STARTCHAR K
ENCODING 75
SWIDTH 578 0
DWIDTH 10 0
BBX 11 12 0 0
BITMAP
1FFF40
7E7DA0
FE76F4
FE5BF4
FE0FF4
FE67F4
FE75F4
FE7DB4
FFFFF4
FFFFF4
7FFFE0
1BFF80
ENDCHAR
STARTCHAR L
ENCODING 76
SWIDTH 578 0
DWIDTH 10 0
BBX 11 12 0 0
BITMAP
1FBF80
7F3FE0
FF3FF4
FF3FF4
FF3FF4
FF3FF4
FF3FF4
FF01F4
FFFFF4
FFFFF4
7FFFE0
1BFF80
ENDCHAR
STARTCHAR M
ENCODING 77
SWIDTH 578 0
DWIDTH 10 0
BBX 11 12 0 0
BITMAP
1ABA80
754560
F6CE74
F6CE74
F6CE74
F6EE74
F6FE74
F6FE74
FFFFF4
FFFFF4
7FFFE0
1BFF80
ENDCHAR
STARTCHAR N
ENCODING 78
SWIDTH 578 0
DWIDTH 10 0
BBX 11 12 0 0
BITMAP
1BAB80
7854E0
F9FDB4
F9FDB4
F9FDB4
F9FDB4
F9FDB4
F9FDB4
FFFFF4
FFFFF4
7FFFE0
1BFF80
ENDCHAR
STARTCHAR O
ENCODING 79
SWIDTH 578 0
DWIDTH 10 0
BBX 11 12 0 0
BITMAP
1FAA80
7C54A0
FDFDB4
FDFDB4
FDFDB4
FDFDB4
FDFDB4
FD00F4
FFFFF4
FFFFF4
7FFFE0
1BFF80
ENDCHAR
STARTCHAR P
ENCODING 80
SWIDTH 578 0
DWIDTH 10 0
BBX 11 12 0 0
BITMAP
1EAB80
7D54E0
FDBDB4
FDBDB4
FD64F4
FD6AF4
FDBFF4
FDBFF4
FFFFF4
FFFFF4
7FFFE0
1BFF80
ENDCHAR
STARTCHAR Q
ENCODING 81
SWIDTH 578 0
DWIDTH 10 0
BBX 11 12 0 0
BITMAP
1FAA80
7C54A0
FDFDB4
FDFDB4
FDFDB4
FDFDB4
FDE9B4
FD00F4
FFF6F4
FFFFF4
7FFFE0
1BFF80
ENDCHAR
STARTCHAR R
ENCODING 82
SWIDTH 578 0
DWIDTH 10 0
BBX 11 12 0 0
BITMAP
1EAB80
7C55E0
FCFCF4
FCFDF4
FC02F4
FCF9F4
FCFCF4
FCFCF4
FFFFF4
FFFFF4
7FFFE0
1BFF80
ENDCHAR
STARTCHAR S
ENCODING 83
SWIDTH 578 0
DWIDTH 10 0
BBX 11 12 0 0
BITMAP
1FAA80
7D55E0
FCFFF4
FCBFF4
FE54F4
FFFDB4
FFFDB4
FD01F4
FFFFF4
FFFFF4
7FFFE0
1BFF80
ENDCHAR
STARTCHAR T
ENCODING 84
SWIDTH 578 0
DWIDTH 10 0
BBX 11 12 0 0
BITMAP
1EAA80
7D45E0
FFDFF4
FFDFF4
FFDFF4
FFDFF4
FFDFF4
FFDFF4
FFFFF4
FFFFF4
7FFFE0
1BFF80
ENDCHAR
STARTCHAR U
ENCODING 85
SWIDTH 578 0
DWIDTH 10 0
BBX 11 12 0 0
BITMAP
1AFE40
79FDA0
F9FDB4
F9FDB4
F9FDB4
F9FDB4
F9FDB4
FD00F4
FFFFF4
FFFFF4
7FFFE0
1BFF80
ENDCHAR
STARTCHAR V
ENCODING 86
SWIDTH 578 0
DWIDTH 10 0
BBX 11 12 0 0
BITMAP
1BFE80
7CFCA0
FCBCF4
FDB9F4
FE76F4
FF33F4
FF63F4
FF8BF4
FFFFF4
FFFFF4
7FFFE0
1BFF80
ENDCHAR
STARTCHAR W
ENCODING 87
SWIDTH 578 0
DWIDTH 10 0
BBX 11 12 0 0
BITMAP
1BFF40
73CF20
F38E74
F68A74
F65A74
F665B4
FA35B4
F874F4
FFFFF4
FFFFF4
7FFFE0
1BFF80
ENDCHAR
STARTCHAR X
ENCODING 88
SWIDTH 578 0
DWIDTH 10 0
BBX 11 12 0 0
BITMAP
1FFF80
7CBDA0
FE79F4
FF53F4
FF87F4
FF63F4
FE79F4
FDFDB4
FFFFF4
FFFFF4
7FFFE0
1BFF80
ENDCHAR
STARTCHAR Y
ENCODING 89
SWIDTH 578 0
DWIDTH 10 0
BBX 11 12 0 0
BITMAP
1EFE80
7DBCE0
FE75F4
FF33F4
FF97F4
FFCBF4
FFCFF4
FFCFF4
FFFFF4
FFFFF4
7FFFE0
1BFF80
ENDCHAR
STARTCHAR Z
ENCODING 90
SWIDTH 578 0
DWIDTH 10 0
BBX 11 12 0 0
BITMAP
1FAB80
7E52E0
FFF3F4
FFDBF4
FFCFF4
FF6FF4
FE7FF4
FD01F4
FFFFF4
FFFFF4
7FFFE0
1BFF80
ENDCHAR
STARTCHAR bracketleft
ENCODING 91
SWIDTH 484 0
DWIDTH 9 0
BBX 9 12 0 0
BITMAP
1FB900
7E7F00
FE7F80
FE7F80
FE7F80
FE7F80
FE7F80
FE7F80
FE3F80
FFFF80
7FFF00
1BF800
ENDCHAR
STARTCHAR backslash
ENCODING 92
SWIDTH 516 0
DWIDTH 9 0
BBX 10 12 0 0
BITMAP
1FBE00
7F7F80
FF3FD0
FF7FD0
FF6FD0
FFAFD0
FF9FD0
FFDFD0
FFFFD0
FFFFD0
7FFF80
1BFD00
ENDCHAR
STARTCHAR bracketright
ENCODING 93
SWIDTH 484 0
DWIDTH 9 0
BBX 9 12 0 0
BITMAP
1EB900
7E3F00
FF3F80
FF3F80
FF3F80
FF3F80
FF3F80
FF3F80
FE3F80
FFFF80
7FFF00
1BF800
ENDCHAR
STARTCHAR asciicircum
ENCODING 94
SWIDTH 355 0
DWIDTH 6 0
BBX 7 7 0 4
BITMAP
0A40
2FD0
79E0
BAF0
FBB4
FFF4
6990
ENDCHAR
STARTCHAR underscore
ENCODING 95
SWIDTH 428 0
DWIDTH 8 0
BBX 8 12 0 0
BITMAP
1FE4
7FFC
FFFE
FFFE
FFFE
FFFE
FFFE
FFFE
F00E
FFFE
7FFC
1BE0
ENDCHAR
STARTCHAR grave
ENCODING 96
SWIDTH 308 0
DWIDTH 6 0
BBX 6 6 0 0
BITMAP
7F40
FBC0
B6C0
79D0
2EE0
0A80
ENDCHAR
STARTCHAR a
ENCODING 97
SWIDTH 578 0
DWIDTH 10 0
BBX 11 12 0 0
BITMAP
1FAB80
7D55E0
FFF9F4
FFF9F4
FD55F4
F9F9F4
F9F9F4
FC01F4
FFFFF4
FFFFF4
7FFFE0
1BFF80
ENDCHAR
STARTCHAR b
ENCODING 98
SWIDTH 578 0
DWIDTH 10 0
BBX 11 12 0 0
BITMAP
1AAB80
7855E0
F9FCF4
F9F8F4
F855F4
F9FCF4
F9FCF4
F801F4
FFFFF4
FFFFF4
7FFFE0
1BFF80
ENDCHAR
STARTCHAR c
ENCODING 99
SWIDTH 578 0
DWIDTH 10 0
BBX 11 12 0 0
BITMAP
1FAB80
7C56E0
F9FFF4
F9FFF4
F9FFF4
F9FFF4
F9FFF4
FC02F4
FFFFF4
FFFFF4
7FFFE0
1BFF80
ENDCHAR
STARTCHAR d
ENCODING 100
SWIDTH 578 0
DWIDTH 10 0
BBX 11 12 0 0
BITMAP
1AAA80
7C54A0
FDFDB4
FDFDB4
FDFDB4
FDFDB4
FDFDB4
FC00F4
FFFFF4
FFFFF4
7FFFE0
1BFF80
ENDCHAR
STARTCHAR e
ENCODING 101
SWIDTH 578 0
DWIDTH 10 0
BBX 11 12 0 0
BITMAP
1FAB80
7855E0
F9F9F4
F955F4
F9AAF4
F9FFF4
F9ABF4
FD56F4
FFFFF4
FFFFF4
7FFFE0
1BFF80
ENDCHAR
STARTCHAR f
ENCODING 102
SWIDTH 578 0
DWIDTH 10 0
BBX 11 12 0 0
BITMAP
1FAA80
7D55E0
FDBFF4
FD6BF4
FD16F4
FDBFF4
FDBFF4
FDBFF4
FFFFF4
FFFFF4
7FFFE0
1BFF80
ENDCHAR
STARTCHAR g
ENCODING 103
SWIDTH 578 0
DWIDTH 10 0
BBX 11 12 0 0
BITMAP
1FAA80
7D55E0
FCFFF4
FCFFF4
FCF5B4
FCF9B4
FCFDB4
FD00F4
FFFFF4
FFFFF4
7FFFE0
1BFF80
ENDCHAR
STARTCHAR h
ENCODING 104
SWIDTH 578 0
DWIDTH 10 0
BBX 11 12 0 0
BITMAP
1AFE40
7DFDA0
FDFDB4
FCA9B4
FC54B4
FDFDB4
FDFDB4
FDFDB4
FFFFF4
FFFFF4
7FFFE0
1BFF80
ENDCHAR
STARTCHAR i
ENCODING 105
SWIDTH 578 0
DWIDTH 10 0
BBX 11 12 0 0
BITMAP
1EAA80
7D45E0
FFDFF4
FFDFF4
FFDFF4
FFDFF4
FFDFF4
FD00B4
FFFFF4
FFFFF4
7FFFE0
1BFF80
ENDCHAR
STARTCHAR j
ENCODING 106
SWIDTH 578 0
DWIDTH 10 0
BBX 11 12 0 0
BITMAP
1FFB80
7FF3E0
FFF3F4
FFF3F4
FFF3F4
FFF3F4
FFF3F4
FF07F4
FFFFF4
FFFFF4
7FFFE0
1BFF80
ENDCHAR
STARTCHAR k
ENCODING 107
SWIDTH 578 0
DWIDTH 10 0
BBX 11 12 0 0
BITMAP
1FFF40
7E7DA0
FE76F4
FE5BF4
FE0FF4
FE67F4
FE75F4
FE7DB4
FFFFF4
FFFFF4
7FFFE0
1BFF80
ENDCHAR
STARTCHAR l
ENCODING 108
SWIDTH 578 0
DWIDTH 10 0
BBX 11 12 0 0
BITMAP
1FBF80
7F3FE0
FF3FF4
FF3FF4
FF3FF4
FF3FF4
FF3FF4
FF01F4
FFFFF4
FFFFF4
7FFFE0
1BFF80
ENDCHAR
STARTCHAR m
ENCODING 109
SWIDTH 578 0
DWIDTH 10 0
BBX 11 12 0 0
BITMAP
1ABA80
754560
F6CE74
F6CE74
F6CE74
F6EE74
F6FE74
F6FE74
FFFFF4
FFFFF4
7FFFE0
1BFF80
ENDCHAR
STARTCHAR n
ENCODING 110
SWIDTH 578 0
DWIDTH 10 0
BBX 11 12 0 0
BITMAP
1BAB80
7854E0
F9FDB4
F9FDB4
F9FDB4
F9FDB4
F9FDB4
F9FDB4
FFFFF4
FFFFF4
7FFFE0
1BFF80
ENDCHAR
STARTCHAR o
ENCODING 111
SWIDTH 578 0
DWIDTH 10 0
BBX 11 12 0 0
BITMAP
1FAA80
7C54A0
FDFDB4
FDFDB4
FDFDB4
FDFDB4
FDFDB4
FD00F4
FFFFF4
FFFFF4
7FFFE0
1BFF80
ENDCHAR
STARTCHAR p
ENCODING 112
SWIDTH 578 0
DWIDTH 10 0
BBX 11 12 0 0
BITMAP
1EAB80
7D54E0
FDBDB4
FDBDB4
FD64F4
FD6AF4
FDBFF4
FDBFF4
FFFFF4
FFFFF4
7FFFE0
1BFF80
ENDCHAR
STARTCHAR q
ENCODING 113
SWIDTH 578 0
DWIDTH 10 0
BBX 11 12 0 0
BITMAP
1FAA80
7C54A0
FDFDB4
FDFDB4
FDFDB4
FDFDB4
FDE9B4
FD00F4
FFF6F4
FFFFF4
7FFFE0
1BFF80
ENDCHAR
STARTCHAR r
ENCODING 114
SWIDTH 578 0
DWIDTH 10 0
BBX 11 12 0 0
BITMAP
1EAB80
7C55E0
FCFCF4
FCFDF4
FC02F4
FCF9F4
FCFCF4
FCFCF4
FFFFF4
FFFFF4
7FFFE0
1BFF80
ENDCHAR
STARTCHAR s
ENCODING 115
SWIDTH 578 0
DWIDTH 10 0
BBX 11 12 0 0
BITMAP
1FAA80
7D55E0
FCFFF4
FCBFF4
FE54F4
FFFDB4
FFFDB4
FD01F4
FFFFF4
FFFFF4
7FFFE0
1BFF80
ENDCHAR
STARTCHAR t
ENCODING 116
SWIDTH 578 0
DWIDTH 10 0
BBX 11 12 0 0
BITMAP
1EAA80
7D45E0
FFDFF4
FFDFF4
FFDFF4
FFDFF4
FFDFF4
FFDFF4
FFFFF4
FFFFF4
7FFFE0
1BFF80
ENDCHAR
STARTCHAR u
ENCODING 117
SWIDTH 578 0
DWIDTH 10 0
BBX 11 12 0 0
BITMAP
1AFE40
79FDA0
F9FDB4
F9FDB4
F9FDB4
F9FDB4
F9FDB4
FD00F4
FFFFF4
FFFFF4
7FFFE0
1BFF80
ENDCHAR
STARTCHAR v
ENCODING 118
SWIDTH 578 0
DWIDTH 10 0
BBX 11 12 0 0
BITMAP
1BFE80
7CFCA0
FCBCF4
FDB9F4
FE76F4
FF33F4
FF63F4
FF8BF4
FFFFF4
FFFFF4
7FFFE0
1BFF80
ENDCHAR
STARTCHAR w
ENCODING 119
SWIDTH 578 0
DWIDTH 10 0
BBX 11 12 0 0
BITMAP
1BFF40
73CF20
F38E74
F68A74
F65A74
F665B4
FA35B4
F874F4
FFFFF4
FFFFF4
7FFFE0
1BFF80
ENDCHAR
STARTCHAR x
ENCODING 120
SWIDTH 578 0
DWIDTH 10 0
BBX 11 12 0 0
BITMAP
1FFF80
7CBDA0
FE79F4
FF53F4
FF87F4
FF63F4
FE79F4
FDFDB4
FFFFF4
FFFFF4
7FFFE0
1BFF80
ENDCHAR
STARTCHAR y
ENCODING 121
SWIDTH 578 0
DWIDTH 10 0
BBX 11 12 0 0
BITMAP
1EFE80
7DBCE0
FE75F4
FF33F4
FF97F4
FFCBF4
FFCFF4
FFCFF4
FFFFF4
FFFFF4
7FFFE0
1BFF80
ENDCHAR
STARTCHAR z
ENCODING 122
SWIDTH 578 0
DWIDTH 10 0
BBX 11 12 0 0
BITMAP
1FAB80
7E52E0
FFF3F4
FFDBF4
FFCFF4
FF6FF4
FE7FF4
FD01F4
FFFFF4
FFFFF4
7FFFE0
1BFF80
ENDCHAR
STARTCHAR braceleft
ENCODING 123
SWIDTH 484 0
DWIDTH 9 0
BBX 9 12 0 0
BITMAP
1FA900
7D6F00
FDFF80
FDFF80
E4FF80
F8FF80
FDFF80
FDBF80
FE1F80
FFFF80
7FFF00
1BF800
ENDCHAR
STARTCHAR bar
ENCODING 124
SWIDTH 484 0
DWIDTH 9 0
BBX 9 12 0 0
BITMAP
1F7900
7F7F00
FF7F80
FF7F80
FF7F80
FF7F80
FF7F80
FF7F80
FFBF80
FFFF80
7FFF00
1BF800
ENDCHAR
STARTCHAR braceright
ENCODING 125
SWIDTH 484 0
DWIDTH 9 0
BBX 9 12 0 0
BITMAP
1AB900
7E6F00
FF9F80
FF9F80
FF8680
FF9B80
FF9F80
FF9F80
FC2F80
FFFF80
7FFF00
1BF800
ENDCHAR
STARTCHAR asciitilde
ENCODING 126
SWIDTH 578 0
DWIDTH 10 0
BBX 11 12 0 0
BITMAP
1FFF80
7FFFE0
FFFEF4
FC45F4
FEFBF4
FFFFF4
FFFFF4
FFFFF4
FFFFF4
FFFFF4
7FFFE0
1BFF80
ENDCHAR
STARTCHAR uni00A0
ENCODING 160
SWIDTH 151 0
DWIDTH 3 0
BBX 1 1 0 0
BITMAP
00
ENDCHAR
STARTCHAR exclamdown
ENCODING 161
SWIDTH 424 0
DWIDTH 8 0
BBX 8 12 0 0
BITMAP
1FE0
7EBC
FEBE
FEBE
FEBE
FEBE
FEBE
FEBE
FFFE
FFFE
7FFC
1BE0
ENDCHAR
STARTCHAR cent
ENCODING 162
SWIDTH 578 0
DWIDTH 10 0
BBX 11 12 0 0
BITMAP
1FEF80
7F9BE0
FD47F4
FDDFF4
FDDFF4
FDDFF4
FD9BF4
FE47F4
FFDFF4
FFFFF4
7FFFE0
1BFF80
ENDCHAR
STARTCHAR sterling
ENCODING 163
SWIDTH 578 0
DWIDTH 10 0
BBX 11 12 0 0
BITMAP
1FEF80
7F12E0
FE7AF4
FE7FF4
FD17F4
FE7FF4
FE7FF4
FE02F4
FFFFF4
FFFFF4
7FFFE0
1BFF80
ENDCHAR
STARTCHAR currency
ENCODING 164
SWIDTH 578 0
DWIDTH 10 0
BBX 11 12 0 0
BITMAP
1FFF80
7D55E0
FDA9F4
FDBDF4
FDBDF4
FD55F4
FDFEF4
FFFFF4
FFFFF4
FFFFF4
7FFFE0
1BFF80
ENDCHAR
STARTCHAR yen
ENCODING 165
SWIDTH 578 0
DWIDTH 10 0
BBX 11 12 0 0
BITMAP
1AFE80
7CF9E0
FDB6F4
FE67F4
FF5BF4
FE07F4
FE47F4
FF9FF4
FFFFF4
FFFFF4
7FFFE0
1BFF80
ENDCHAR
STARTCHAR brokenbar
ENCODING 166
SWIDTH 484 0
DWIDTH 9 0
BBX 9 12 0 0
BITMAP
1FB900
7F3F00
FF3F80
FF7F80
FFBF80
FF3F80
FF3F80
FF3F80
FFFF80
FFFF80
7FFF00
1BF800
ENDCHAR
STARTCHAR section
ENCODING 167
SWIDTH 578 0
DWIDTH 10 0
BBX 11 12 0 0
BITMAP
1FFF80
7D55E0
FDFFF4
FD5BF4
FE77F4
FF53F4
FFE9F4
FFFDF4
FD56F4
FFFFF4
7FFFE0
1BFF80
ENDCHAR
STARTCHAR dieresis
ENCODING 168
SWIDTH 388 0
DWIDTH 7 0
BBX 7 5 0 0
BITMAP
2FE0
BFF8
E73C
BFB8
2AA0
ENDCHAR
STARTCHAR copyright
ENCODING 169
SWIDTH 578 0
DWIDTH 10 0
BBX 11 12 0 0
BITMAP
1FEF80
7DA9E0
F75774
EABFA4
DEBFD4
DEBFD4
EA6BA4
F6AA74
FE56F4
FFFFF4
7FFFE0
1BFF80
ENDCHAR
STARTCHAR ordfeminine
ENCODING 170
SWIDTH 578 0
DWIDTH 10 0
BBX 11 12 0 0
BITMAP
1FAB80
7F55E0
FFF9F4
FF55F4
FD65F4
FDA9F4
FE56F4
FFFFF4
FFFFF4
FFFFF4
7FFFE0
1BFF80
ENDCHAR
STARTCHAR guillemotleft
ENCODING 171
SWIDTH 578 0
DWIDTH 10 0
BBX 11 12 0 0
BITMAP
1FFF80
7FFFE0
FF77F4
FEABF4
FDDFF4
FDDFF4
FEABF4
FF77F4
FFFFF4
FFFFF4
7FFFE0
1BFF80
ENDCHAR
STARTCHAR uni00AD
ENCODING 173
SWIDTH 428 0
DWIDTH 8 0
BBX 8 12 0 0
BITMAP
1FE4
7FFC
FFFE
F42E
FFFE
FFFE
FFFE
FFFE
FFFE
FFFE
7FFC
1BE0
ENDCHAR
STARTCHAR registered
ENCODING 174
SWIDTH 578 0
DWIDTH 10 0
BBX 11 12 0 0
BITMAP
1FEF80
7DA9E0
F65774
EABAA4
DE67D4
DE67D4
EABAA4
F6FE74
FE56F4
FFFFF4
7FFFE0
1BFF80
ENDCHAR
STARTCHAR macron
ENCODING 175
SWIDTH 428 0
DWIDTH 8 0
BBX 8 6 0 0
BITMAP
0100
2FF4
BFFD
F56E
BFFE
7FF8
ENDCHAR
STARTCHAR degree
ENCODING 176
SWIDTH 428 0
DWIDTH 8 0
BBX 8 12 0 0
BITMAP
1FE4
756C
F7AE
F97E
FFFE
FFFE
FFFE
FFFE
FFFE
FFFE
7FFC
1BE0
ENDCHAR
STARTCHAR plusminus
ENCODING 177
SWIDTH 428 0
DWIDTH 8 0
BBX 8 12 0 0
BITMAP
1FE4
7DBC
F55E
F96E
FDBE
FEBE
F56E
FFFE
FFFE
FFFE
7FFC
1BE0
ENDCHAR
STARTCHAR uni00B2
ENCODING 178
SWIDTH 578 0
DWIDTH 10 0
BBX 11 12 0 0
BITMAP
1FAF80
7E13E0
FFA2F4
FE1BF4
FD6BF4
FFABF4
FFFFF4
FFFFF4
FFFFF4
FFFFF4
7FFFE0
1BFF80
ENDCHAR
STARTCHAR uni00B3
ENCODING 179
SWIDTH 578 0
DWIDTH 10 0
BBX 11 12 0 0
BITMAP
1FEB80
7E15E0
FFE9F4
FFE5F4
FE65F4
FFABF4
FFFFF4
FFFFF4
FFFFF4
FFFFF4
7FFFE0
1BFF80
ENDCHAR
STARTCHAR acute
ENCODING 180
SWIDTH 308 0
DWIDTH 6 0
BBX 6 6 0 0
BITMAP
2F80
7AD0
B6D0
F780
FB40
6A00
ENDCHAR
STARTCHAR uni00B5
ENCODING 181
SWIDTH 578 0
DWIDTH 10 0
BBX 11 12 0 0
BITMAP
1BFE80
7AFCE0
FAFCF4
FAFCF4
FAFCF4
FAFCF4
F9FCF4
F801F4
FAFFF4
FFFFF4
7FFFE0
1BFF80
ENDCHAR
STARTCHAR paragraph
ENCODING 182
SWIDTH 578 0
DWIDTH 10 0
BBX 11 12 0 0
BITMAP
1FFF80
7C05E0
F80DF4
F80DF4
FE5DF4
FFEDF4
FFEDF4
FFEEF4
FFFFF4
FFFFF4
7FFFE0
1BFF80
ENDCHAR
STARTCHAR periodcentered
ENCODING 183
SWIDTH 428 0
DWIDTH 8 0
BBX 8 12 0 0
BITMAP
1FE4
7FFC
FFFE
FDBE
FFFE
FFFE
FFFE
FFFE
FFFE
FFFE
7FFC
1BE0
ENDCHAR
STARTCHAR cedilla
ENCODING 184
SWIDTH 101 0
DWIDTH 2 0
BBX 2 3 0 -3
BITMAP
A0
80
60
ENDCHAR
STARTCHAR uni00B9
ENCODING 185
SWIDTH 578 0
DWIDTH 10 0
BBX 11 12 0 0
BITMAP
1FEF80
7F0FE0
FFCFF4
FFCFF4
FFCFF4
FFEFF4
FFFFF4
FFFFF4
FFFFF4
FFFFF4
7FFFE0
1BFF80
ENDCHAR
STARTCHAR ordmasculine
ENCODING 186
SWIDTH 578 0
DWIDTH 10 0
BBX 11 12 0 0
BITMAP
1FAB80
7D54E0
FDFDB4
FDFDB4
FDFDB4
FDA8F4
FE55F4
FFFFF4
FFFFF4
FFFFF4
7FFFE0
1BFF80
ENDCHAR
STARTCHAR guillemotright
ENCODING 187
SWIDTH 578 0
DWIDTH 10 0
BBX 11 12 0 0
BITMAP
1FFF80
7FFFE0
FDDFF4
FF77F4
FF99F4
FFA9F4
FF77F4
FDDFF4
FFFFF4
FFFFF4
7FFFE0
1BFF80
ENDCHAR
STARTCHAR onequarter
ENCODING 188
SWIDTH 578 0
DWIDTH 10 0
BBX 11 12 0 0
BITMAP
1BEF80
52DFE0
F69FF4
F66FF4
F62774
FA2774
FE6524
FDB924
FFFF74
FFFFF4
7FFFE0
1BFF80
ENDCHAR
STARTCHAR onehalf
ENCODING 189
SWIDTH 578 0
DWIDTH 10 0
BBX 11 12 0 0
BITMAP
1BEF80
52DFE0
F69FF4
F66574
F62664
FA3524
FE67F4
FDA034
FFFFF4
FFFFF4
7FFFE0
1BFF80
ENDCHAR
STARTCHAR threequarters
ENCODING 190
SWIDTH 578 0
DWIDTH 10 0
BBX 11 12 0 0
BITMAP
1BEF80
52DFE0
F69FF4
F66564
F62A94
FA3D14
FE6B94
FDA024
FFFFF4
FFFFF4
7FFFE0
1BFF80
ENDCHAR
STARTCHAR questiondown
ENCODING 191
SWIDTH 578 0
DWIDTH 10 0
BBX 11 12 0 0
BITMAP
1FFF80
7FEBE0
FFEBF4
FF9BF4
FDAFF4
FDFFF4
FDFDF4
FE55F4
FFFFF4
FFFFF4
7FFFE0
1BFF80
ENDCHAR
STARTCHAR Agrave
ENCODING 192
SWIDTH 578 0
DWIDTH 10 0
BBX 11 17 0 0
BITMAP
0BE000
1FB800
0F3C00
0BAC00
03FD00
1FFF80
7D55E0
FDF9F4
FCFCF4
FCA4F4
FCA8F4
F9FDB4
F9FDB4
FFFFF4
FFFFF4
7FFFE0
1BFF80
ENDCHAR
STARTCHAR Aacute
ENCODING 193
SWIDTH 578 0
DWIDTH 10 0
BBX 11 17 0 0
BITMAP
007E40
00FB80
01EB80
02DF00
02EE00
1FFF80
7D55E0
FDF9F4
FCFCF4
FCA4F4
FCA8F4
F9FDB4
F9FDB4
FFFFF4
FFFFF4
7FFFE0
1BFF80
ENDCHAR
STARTCHAR Acircumflex
ENCODING 194
SWIDTH 578 0
DWIDTH 10 0
BBX 11 18 0 0
BITMAP
005400
01FD00
03DE00
07AB00
0B7780
0BFF80
1FFF80
7D55E0
FDF9F4
FCFCF4
FCA4F4
FCA8F4
F9FDB4
F9FDB4
FFFFF4
FFFFF4
7FFFE0
1BFF80
ENDCHAR
STARTCHAR Atilde
ENCODING 195
SWIDTH 578 0
DWIDTH 10 0
BBX 11 18 0 0
BITMAP
01A900
0BFF80
1FFFC0
1FBBD0
1D53D0
0BFF80
1FAF80
7D55E0
FDF9F4
FCFCF4
FCA4F4
FCA8F4
F9FDB4
F9FDB4
FFFFF4
FFFFF4
7FFFE0
1BFF80
ENDCHAR
STARTCHAR Adieresis
ENCODING 196
SWIDTH 578 0
DWIDTH 10 0
BBX 11 16 0 0
BITMAP
02FE00
0BFF80
0E73C0
0BFF80
1FFF80
7D55E0
FDF9F4
FCFCF4
FCA4F4
FCA8F4
F9FDB4
F9FDB4
FFFFF4
FFFFF4
7FFFE0
1BFF80
ENDCHAR
STARTCHAR Aring
ENCODING 197
SWIDTH 578 0
DWIDTH 10 0
BBX 11 18 0 0
BITMAP
006400
03FE00
0B5740
0F7780
0F5B80
07FF40
1FAF80
7D55E0
FDF9F4
FCFCF4
FCA4F4
FCA8F4
F9FDB4
F9FDB4
FFFFF4
FFFFF4
7FFFE0
1BFF80
ENDCHAR
STARTCHAR AE
ENCODING 198
SWIDTH 578 0
DWIDTH 10 0
BBX 11 12 0 0
BITMAP
1FAA40
7C45A0
F9CFF4
F9CFF4
F9C5B4
F6CFF4
F44FF4
F6C0B4
FFFFF4
FFFFF4
7FFFE0
1BFF80
ENDCHAR
STARTCHAR Ccedilla
ENCODING 199
SWIDTH 578 0
DWIDTH 10 0
BBX 11 12 0 0
BITMAP
1FAB80
7C56E0
F9FFF4
F9FFF4
F9FFF4
F9FFF4
F9FFF4
FC02F4
FF5FF4
FF3FF4
7F5FE0
1BFF80
ENDCHAR
STARTCHAR Egrave
ENCODING 200
SWIDTH 578 0
DWIDTH 10 0
BBX 11 17 0 0
BITMAP
07F400
0FB800
0F7C00
07AD00
03ED00
1FFE80
7E55E0
FEBFF4
FEBFF4
FE02F4
FEBFF4
FEBFF4
FE00F4
FFFFF4
FFFFF4
7FFFE0
1BFF80
ENDCHAR
STARTCHAR Eacute
ENCODING 201
SWIDTH 578 0
DWIDTH 10 0
BBX 11 17 0 0
BITMAP
007F40
00FBC0
01E780
01DB40
02EE00
1FFF80
7E55E0
FEBFF4
FEBFF4
FE02F4
FEBFF4
FEBFF4
FE00F4
FFFFF4
FFFFF4
7FFFE0
1BFF80
ENDCHAR
STARTCHAR Ecircumflex
ENCODING 202
SWIDTH 578 0
DWIDTH 10 0
BBX 11 18 0 0
BITMAP
005400
01FD00
02DF00
03AB40
077780
0BFF80
1FFFC0
7E55E0
FEBFF4
FEBFF4
FE02F4
FEBFF4
FEBFF4
FE00F4
FFFFF4
FFFFF4
7FFFE0
1BFF80
ENDCHAR
STARTCHAR Edieresis
ENCODING 203
SWIDTH 578 0
DWIDTH 10 0
BBX 11 16 0 0
BITMAP
02FE00
0BFFC0
0F36C0
0BFFC0
1FFF80
7E55E0
FEBFF4
FEBFF4
FE02F4
FEBFF4
FEBFF4
FE00F4
FFFFF4
FFFFF4
7FFFE0
1BFF80
ENDCHAR
STARTCHAR Igrave
ENCODING 204
SWIDTH 578 0
DWIDTH 10 0
BBX 11 17 0 0
BITMAP
07F400
0FB800
0F6C00
07AD00
02ED00
1FFE80
7D45E0
FFDFF4
FFDFF4
FFDFF4
FFDFF4
FFDFF4
FD00B4
FFFFF4
FFFFF4
7FFFE0
1BFF80
ENDCHAR
STARTCHAR Iacute
ENCODING 205
SWIDTH 578 0
DWIDTH 10 0
BBX 11 17 0 0
BITMAP
007F40
00BBC0
00E7C0
01DB40
02EE00
1FFF80
7D45E0
FFDFF4
FFDFF4
FFDFF4
FFDFF4
FFDFF4
FD00B4
FFFFF4
FFFFF4
7FFFE0
1BFF80
ENDCHAR
STARTCHAR Icircumflex
ENCODING 206
SWIDTH 578 0
DWIDTH 10 0
BBX 11 18 0 0
BITMAP
001400
00FD00
02DF00
039740
077780
0BFFC0
1FFFC0
7D45E0
FFDFF4
FFDFF4
FFDFF4
FFDFF4
FFDFF4
FD00B4
FFFFF4
FFFFF4
7FFFE0
1BFF80
ENDCHAR
STARTCHAR Idieresis
ENCODING 207
SWIDTH 578 0
DWIDTH 10 0
BBX 11 16 0 0
BITMAP
02FE40
0BFFC0
0B36D0
0BFFC0
1FFF80
7D45E0
FFDFF4
FFDFF4
FFDFF4
FFDFF4
FFDFF4
FD00B4
FFFFF4
FFFFF4
7FFFE0
1BFF80
ENDCHAR
STARTCHAR Eth
ENCODING 208
SWIDTH 578 0
DWIDTH 10 0
BBX 11 12 0 0
BITMAP
1AAA80
7C54A0
FDFDB4
FDFDB4
F8BDB4
FDFDB4
FDFDB4
FC00F4
FFFFF4
FFFFF4
7FFFE0
1BFF80
ENDCHAR
STARTCHAR Ntilde
ENCODING 209
SWIDTH 578 0
DWIDTH 10 0
BBX 11 18 0 0
BITMAP
01A900
0BFF40
1FFFC0
2EBBC0
1D93C0
0FFF40
1BAB80
7854E0
F9FDB4
F9FDB4
F9FDB4
F9FDB4
F9FDB4
F9FDB4
FFFFF4
FFFFF4
7FFFE0
1BFF80
ENDCHAR
STARTCHAR Ograve
ENCODING 210
SWIDTH 578 0
DWIDTH 10 0
BBX 11 17 0 0
BITMAP
07F400
0FB800
0F7C00
07AD00
03ED00
1FFF80
7C54A0
FDFDB4
FDFDB4
FDFDB4
FDFDB4
FDFDB4
FD00F4
FFFFF4
FFFFF4
7FFFE0
1BFF80
ENDCHAR
STARTCHAR Oacute
ENCODING 211
SWIDTH 578 0
DWIDTH 10 0
BBX 11 17 0 0
BITMAP
007F40
00FBC0
01E780
02DF40
02EE00
1FFF80
7C54A0
FDFDB4
FDFDB4
FDFDB4
FDFDB4
FDFDB4
FD00F4
FFFFF4
FFFFF4
7FFFE0
1BFF80
ENDCHAR
STARTCHAR Ocircumflex
ENCODING 212
SWIDTH 578 0
DWIDTH 10 0
BBX 11 18 0 0
BITMAP
005400
01FD00
02DF00
03AB40
0B7780
0BFF80
1FFFC0
7C54A0
FDFDB4
FDFDB4
FDFDB4
FDFDB4
FDFDB4
FD00F4
FFFFF4
FFFFF4
7FFFE0
1BFF80
ENDCHAR
STARTCHAR Otilde
ENCODING 213
SWIDTH 578 0
DWIDTH 10 0
BBX 11 18 0 0
BITMAP
01A900
07FF80
0FFFD0
1FBAD0
0E52D0
0BFF80
1FAA80
7C54A0
FDFDB4
FDFDB4
FDFDB4
FDFDB4
FDFDB4
FD00F4
FFFFF4
FFFFF4
7FFFE0
1BFF80
ENDCHAR
STARTCHAR Odieresis
ENCODING 214
SWIDTH 578 0
DWIDTH 10 0
BBX 11 16 0 0
BITMAP
02FE00
0BFF80
0E32C0
0BFFC0
1FFF80
7C54A0
FDFDB4
FDFDB4
FDFDB4
FDFDB4
FDFDB4
FD00F4
FFFFF4
FFFFF4
7FFFE0
1BFF80
ENDCHAR
STARTCHAR multiply
ENCODING 215
SWIDTH 578 0
DWIDTH 10 0
BBX 11 12 0 0
BITMAP
1FFF80
7FFFE0
FFBBF4
FF57F4
FF8BF4
FF77F4
FFFFF4
FFFFF4
FFFFF4
FFFFF4
7FFFE0
1BFF80
ENDCHAR
STARTCHAR Oslash
ENCODING 216
SWIDTH 578 0
DWIDTH 10 0
BBX 11 12 0 0
BITMAP
1FAA80
7C54E0
F9F4B4
F9E5B4
F9DDB4
F96DB4
F87DB4
FD01F4
FFFFF4
FFFFF4
7FFFE0
1BFF80
ENDCHAR
STARTCHAR Ugrave
ENCODING 217
SWIDTH 578 0
DWIDTH 10 0
BBX 11 17 0 0
BITMAP
07F400
0FB800
0F7C00
07AD00
03ED00
1BFF40
79FDA0
F9FDB4
F9FDB4
F9FDB4
F9FDB4
F9FDB4
FD00F4
FFFFF4
FFFFF4
7FFFE0
1BFF80
ENDCHAR
STARTCHAR Uacute
ENCODING 218
SWIDTH 578 0
DWIDTH 10 0
BBX 11 17 0 0
BITMAP
007F40
00FBC0
01E780
01DB40
02EE00
1BFF40
79FDA0
F9FDB4
F9FDB4
F9FDB4
F9FDB4
F9FDB4
FD00F4
FFFFF4
FFFFF4
7FFFE0
1BFF80
ENDCHAR
STARTCHAR Ucircumflex
ENCODING 219
SWIDTH 578 0
DWIDTH 10 0
BBX 11 18 0 0
BITMAP
005400
01FD00
02DF00
03AB40
077780
0BFF80
1FFF80
79FDA0
F9FDB4
F9FDB4
F9FDB4
F9FDB4
F9FDB4
FD00F4
FFFFF4
FFFFF4
7FFFE0
1BFF80
ENDCHAR
STARTCHAR Udieresis
ENCODING 220
SWIDTH 578 0
DWIDTH 10 0
BBX 11 16 0 0
BITMAP
02FE00
0BFFC0
0F36C0
0BFFC0
1FFF80
79FDA0
F9FDB4
F9FDB4
F9FDB4
F9FDB4
F9FDB4
FD00F4
FFFFF4
FFFFF4
7FFFE0
1BFF80
ENDCHAR
STARTCHAR Yacute
ENCODING 221
SWIDTH 578 0
DWIDTH 10 0
BBX 11 17 0 0
BITMAP
007F40
00FBC0
01E780
01DF40
02EE00
1FFF80
7DBCE0
FE75F4
FF33F4
FF97F4
FFCBF4
FFCFF4
FFCFF4
FFFFF4
FFFFF4
7FFFE0
1BFF80
ENDCHAR
STARTCHAR Thorn
ENCODING 222
SWIDTH 578 0
DWIDTH 10 0
BBX 11 12 0 0
BITMAP
1EFF80
7DBFE0
FD01F4
FDBDF4
FDBDF4
FD01F4
FDBFF4
FDBFF4
FFFFF4
FFFFF4
7FFFE0
1BFF80
ENDCHAR
STARTCHAR germandbls
ENCODING 223
SWIDTH 578 0
DWIDTH 10 0
BBX 11 12 0 0
BITMAP
1FAB80
7C55E0
F9FCF4
F9F9F4
F9F5F4
F9FDB4
F9FDB4
F9C0F4
FFFFF4
FFFFF4
7FFFE0
1BFF80
ENDCHAR
STARTCHAR agrave
ENCODING 224
SWIDTH 578 0
DWIDTH 10 0
BBX 11 17 0 0
BITMAP
07F400
0FB800
0F7C00
07AD00
03ED00
1FFF80
7D55E0
FFF9F4
FFF9F4
FD55F4
F9F9F4
F9F9F4
FC01F4
FFFFF4
FFFFF4
7FFFE0
1BFF80
ENDCHAR
STARTCHAR aacute
ENCODING 225
SWIDTH 578 0
DWIDTH 10 0
BBX 11 17 0 0
BITMAP
007F40
00FBC0
01E780
01DB40
02EE00
1FFF80
7D55E0
FFF9F4
FFF9F4
FD55F4
F9F9F4
F9F9F4
FC01F4
FFFFF4
FFFFF4
7FFFE0
1BFF80
ENDCHAR
STARTCHAR acircumflex
ENCODING 226
SWIDTH 578 0
DWIDTH 10 0
BBX 11 18 0 0
BITMAP
005400
01FD00
02DF00
03AB40
077780
0BFF80
1FFFC0
7D55E0
FFF9F4
FFF9F4
FD55F4
F9F9F4
F9F9F4
FC01F4
FFFFF4
FFFFF4
7FFFE0
1BFF80
ENDCHAR
STARTCHAR atilde
ENCODING 227
SWIDTH 578 0
DWIDTH 10 0
BBX 11 18 0 0
BITMAP
01A900
07FF80
0FFFD0
1FBAE0
0E52D0
0BFF80
1FAB80
7D55E0
FFF9F4
FFF9F4
FD55F4
F9F9F4
F9F9F4
FC01F4
FFFFF4
FFFFF4
7FFFE0
1BFF80
ENDCHAR
STARTCHAR adieresis
ENCODING 228
SWIDTH 578 0
DWIDTH 10 0
BBX 11 16 0 0
BITMAP
02FE00
0BFFC0
0F36C0
0BFFC0
1FFF80
7D55E0
FFF9F4
FFF9F4
FD55F4
F9F9F4
F9F9F4
FC01F4
FFFFF4
FFFFF4
7FFFE0
1BFF80
ENDCHAR
STARTCHAR aring
ENCODING 229
SWIDTH 578 0
DWIDTH 10 0
BBX 11 18 0 0
BITMAP
006400
03FF00
0B5780
0B77C0
0B5780
07FF40
1FAB80
7D55E0
FFF9F4
FFF9F4
FD55F4
F9F9F4
F9F9F4
FC01F4
FFFFF4
FFFFF4
7FFFE0
1BFF80
ENDCHAR
STARTCHAR ae
ENCODING 230
SWIDTH 578 0
DWIDTH 10 0
BBX 11 12 0 0
BITMAP
1FAA40
7C45A0
F9CFF4
F9CFF4
F9C5B4
F6CFF4
F44FF4
F6C0B4
FFFFF4
FFFFF4
7FFFE0
1BFF80
ENDCHAR
STARTCHAR ccedilla
ENCODING 231
SWIDTH 578 0
DWIDTH 10 0
BBX 11 12 0 0
BITMAP
1FAB80
7C56E0
F9FFF4
F9FFF4
F9FFF4
F9FFF4
F9FFF4
FC02F4
FF5FF4
FF7FF4
7F5FE0
1BFF80
ENDCHAR
STARTCHAR egrave
ENCODING 232
SWIDTH 578 0
DWIDTH 10 0
BBX 11 17 0 0
BITMAP
07F400
0FB800
0F3C00
0BAD00
03ED00
1FFF80
7855E0
F9F9F4
F955F4
F9AAF4
F9FFF4
F9ABF4
FD56F4
FFFFF4
FFFFF4
7FFFE0
1BFF80
ENDCHAR
STARTCHAR eacute
ENCODING 233
SWIDTH 578 0
DWIDTH 10 0
BBX 11 17 0 0
BITMAP
00BE00
00FB80
01DB80
02DF00
02ED00
1FFF80
7855E0
F9F9F4
F955F4
F9AAF4
F9FFF4
F9ABF4
FD56F4
FFFFF4
FFFFF4
7FFFE0
1BFF80
ENDCHAR
STARTCHAR ecircumflex
ENCODING 234
SWIDTH 578 0
DWIDTH 10 0
BBX 11 18 0 0
BITMAP
005000
02FC00
039E00
0B5F00
0F6B40
0FFF40
1FFF80
7855E0
F9F9F4
F955F4
F9AAF4
F9FFF4
F9ABF4
FD56F4
FFFFF4
FFFFF4
7FFFE0
1BFF80
ENDCHAR
STARTCHAR edieresis
ENCODING 235
SWIDTH 578 0
DWIDTH 10 0
BBX 11 16 0 0
BITMAP
07FD00
0FFF40
1DA780
0FFF40
1FFF80
7855E0
F9F9F4
F955F4
F9AAF4
F9FFF4
F9ABF4
FD56F4
FFFFF4
FFFFF4
7FFFE0
1BFF80
ENDCHAR
STARTCHAR igrave
ENCODING 236
SWIDTH 578 0
DWIDTH 10 0
BBX 11 17 0 0
BITMAP
07F400
0FB800
0F7C00
07AD00
03ED00
1FFE80
7D45E0
FFDFF4
FFDFF4
FFDFF4
FFDFF4
FFDFF4
FD00B4
FFFFF4
FFFFF4
7FFFE0
1BFF80
ENDCHAR
STARTCHAR iacute
ENCODING 237
SWIDTH 578 0
DWIDTH 10 0
BBX 11 17 0 0
BITMAP
007F40
00FBC0
00E780
01DB40
02EE00
1FFF80
7D45E0
FFDFF4
FFDFF4
FFDFF4
FFDFF4
FFDFF4
FD00B4
FFFFF4
FFFFF4
7FFFE0
1BFF80
ENDCHAR
STARTCHAR icircumflex
ENCODING 238
SWIDTH 578 0
DWIDTH 10 0
BBX 11 18 0 0
BITMAP
005400
01FD00
02DF00
03AB40
077780
0BFF80
1FFFC0
7D45E0
FFDFF4
FFDFF4
FFDFF4
FFDFF4
FFDFF4
FD00B4
FFFFF4
FFFFF4
7FFFE0
1BFF80
ENDCHAR
STARTCHAR idieresis
ENCODING 239
SWIDTH 578 0
DWIDTH 10 0
BBX 11 16 0 0
BITMAP
02FE40
0BFFC0
0B36C0
0BFFC0
1FFF80
7D45E0
FFDFF4
FFDFF4
FFDFF4
FFDFF4
FFDFF4
FD00B4
FFFFF4
FFFFF4
7FFFE0
1BFF80
ENDCHAR
STARTCHAR eth
ENCODING 240
SWIDTH 578 0
DWIDTH 10 0
BBX 11 12 0 0
BITMAP
1AAA80
7C54A0
FDFDB4
FDFDB4
F8BDB4
FDFDB4
FDFDB4
FC00F4
FFFFF4
FFFFF4
7FFFE0
1BFF80
ENDCHAR
STARTCHAR ntilde
ENCODING 241
SWIDTH 578 0
DWIDTH 10 0
BBX 11 18 0 0
BITMAP
01A900
0BFF40
1FFFC0
2EBBC0
1D93C0
0FFF40
1BAB80
7854E0
F9FDB4
F9FDB4
F9FDB4
F9FDB4
F9FDB4
F9FDB4
FFFFF4
FFFFF4
7FFFE0
1BFF80
ENDCHAR
STARTCHAR oacute
ENCODING 243
SWIDTH 578 0
DWIDTH 10 0
BBX 11 17 0 0
BITMAP
00BE40
00FB80
01DB80
02DF00
02ED00
1FFF80
7C54A0
FDFDB4
FDFDB4
FDFDB4
FDFDB4
FDFDB4
FD00F4
FFFFF4
FFFFF4
7FFFE0
1BFF80
ENDCHAR
STARTCHAR ocircumflex
ENCODING 244
SWIDTH 578 0
DWIDTH 10 0
BBX 11 18 0 0
BITMAP
005400
01FD00
02DF00
03AB40
077780
0BFF80
1FFFC0
7C54A0
FDFDB4
FDFDB4
FDFDB4
FDFDB4
FDFDB4
FD00F4
FFFFF4
FFFFF4
7FFFE0
1BFF80
ENDCHAR
STARTCHAR otilde
ENCODING 245
SWIDTH 578 0
DWIDTH 10 0
BBX 11 17 0 0
BITMAP
01A900
0BFF80
0FFFD0
1FBBD0
1E56D0
1FFFC0
7C54A0
FDFDB4
FDFDB4
FDFDB4
FDFDB4
FDFDB4
FD00F4
FFFFF4
FFFFF4
7FFFE0
1BFF80
ENDCHAR
STARTCHAR odieresis
ENCODING 246
SWIDTH 578 0
DWIDTH 10 0
BBX 11 16 0 0
BITMAP
02FE00
0BFFC0
0F36C0
0BFFC0
1FFF80
7C54A0
FDFDB4
FDFDB4
FDFDB4
FDFDB4
FDFDB4
FD00F4
FFFFF4
FFFFF4
7FFFE0
1BFF80
ENDCHAR
STARTCHAR divide
ENCODING 247
SWIDTH 428 0
DWIDTH 8 0
BBX 8 12 0 0
BITMAP
1FE4
7EBC
FEBE
F42E
FEBE
FEBE
FFFE
FFFE
FFFE
FFFE
7FFC
1BE0
ENDCHAR
STARTCHAR oslash
ENCODING 248
SWIDTH 578 0
DWIDTH 10 0
BBX 11 12 0 0
BITMAP
1FAA80
7C54E0
F9F4B4
F9E5B4
F9DDB4
F96DB4
F87DB4
FD01F4
FFFFF4
FFFFF4
7FFFE0
1BFF80
ENDCHAR
STARTCHAR ugrave
ENCODING 249
SWIDTH 578 0
DWIDTH 10 0
BBX 11 17 0 0
BITMAP
07F400
0FB800
0F7C00
07AD00
03ED00
1BFF40
79FDA0
F9FDB4
F9FDB4
F9FDB4
F9FDB4
F9FDB4
FD00F4
FFFFF4
FFFFF4
7FFFE0
1BFF80
ENDCHAR
STARTCHAR uacute
ENCODING 250
SWIDTH 578 0
DWIDTH 10 0
BBX 11 17 0 0
BITMAP
007F40
00FBC0
00E780
01DB40
02EE00
1BFF40
79FDA0
F9FDB4
F9FDB4
F9FDB4
F9FDB4
F9FDB4
FD00F4
FFFFF4
FFFFF4
7FFFE0
1BFF80
ENDCHAR
STARTCHAR ucircumflex
ENCODING 251
SWIDTH 578 0
DWIDTH 10 0
BBX 11 18 0 0
BITMAP
005400
01FD00
02DF00
03AB40
077780
0BFF80
1FFF80
79FDA0
F9FDB4
F9FDB4
F9FDB4
F9FDB4
F9FDB4
FD00F4
FFFFF4
FFFFF4
7FFFE0
1BFF80
ENDCHAR
STARTCHAR udieresis
ENCODING 252
SWIDTH 578 0
DWIDTH 10 0
BBX 11 16 0 0
BITMAP
02FE40
0BFFC0
0B36C0
0BFFC0
1FFF80
79FDA0
F9FDB4
F9FDB4
F9FDB4
F9FDB4
F9FDB4
FD00F4
FFFFF4
FFFFF4
7FFFE0
1BFF80
ENDCHAR
STARTCHAR yacute
ENCODING 253
SWIDTH 578 0
DWIDTH 10 0
BBX 11 17 0 0
BITMAP
007F40
00FBC0
01E780
01DF40
02EE00
1FFF80
7DBCE0
FE75F4
FF33F4
FF97F4
FFCBF4
FFCFF4
FFCFF4
FFFFF4
FFFFF4
7FFFE0
1BFF80
ENDCHAR
STARTCHAR thorn
ENCODING 254
SWIDTH 578 0
DWIDTH 10 0
BBX 11 12 0 0
BITMAP
1EFF80
7DBFE0
FD01F4
FDBDF4
FDBDF4
FD01F4
FDBFF4
FDBFF4
FFFFF4
FFFFF4
7FFFE0
1BFF80
ENDCHAR
STARTCHAR ydieresis
ENCODING 255
SWIDTH 578 0
DWIDTH 10 0
BBX 11 16 0 0
BITMAP
02FE00
0BFFC0
0F32C0
0BFFC0
1FFF80
7DBCE0
FE75F4
FF33F4
FF97F4
FFCBF4
FFCFF4
FFCFF4
FFFFF4
FFFFF4
7FFFE0
1BFF80
ENDCHAR
STARTCHAR Amacron
ENCODING 256
SWIDTH 578 0
DWIDTH 10 0
BBX 11 17 0 0
BITMAP
001000
07FE40
0FFFC0
1E57D0
1FFFC0
1FFFC0
7D55E0
FDF9F4
FCFCF4
FCA4F4
FCA8F4
F9FDB4
F9FDB4
FFFFF4
FFFFF4
7FFFE0
1BFF80
ENDCHAR
STARTCHAR amacron
ENCODING 257
SWIDTH 578 0
DWIDTH 10 0
BBX 11 17 0 0
BITMAP
001000
06FF40
0FFFD0
1F57D0
0FFFD0
1FFFC0
7D55E0
FFF9F4
FFF9F4
FD55F4
F9F9F4
F9F9F4
FC01F4
FFFFF4
FFFFF4
7FFFE0
1BFF80
ENDCHAR
STARTCHAR Abreve
ENCODING 258
SWIDTH 578 0
DWIDTH 10 0
BBX 11 18 0 0
BITMAP
001000
07FE40
0FFFC0
1FBBD0
1F57C0
07FF40
1FAF80
7D55E0
FDF9F4
FCFCF4
FCA4F4
FCA8F4
F9FDB4
F9FDB4
FFFFF4
FFFFF4
7FFFE0
1BFF80
ENDCHAR
STARTCHAR abreve
ENCODING 259
SWIDTH 578 0
DWIDTH 10 0
BBX 11 18 0 0
BITMAP
001000
06FF40
0FFFD0
1FBBD0
0F57D0
07FF80
1FAB80
7D55E0
FFF9F4
FFF9F4
FD55F4
F9F9F4
F9F9F4
FC01F4
FFFFF4
FFFFF4
7FFFE0
1BFF80
ENDCHAR
STARTCHAR Aogonek
ENCODING 260
SWIDTH 578 0
DWIDTH 10 0
BBX 11 12 0 0
BITMAP
1FAF80
7D55E0
FDF9F4
FCFCF4
FCA4F4
FCA8F4
F9FDB4
F9FDB4
FFFDF4
FFF6F4
7FF9A0
1BFF80
ENDCHAR
STARTCHAR aogonek
ENCODING 261
SWIDTH 578 0
DWIDTH 10 0
BBX 11 12 0 0
BITMAP
1FAB80
7D55E0
FFF9F4
FFF9F4
FD55F4
F9F9F4
F9F9F4
FC01F4
FF9FF4
FF6FF4
7F9FE0
1BFF80
ENDCHAR
STARTCHAR Cacute
ENCODING 262
SWIDTH 578 0
DWIDTH 10 0
BBX 11 17 0 0
BITMAP
007F40
00BBC0
00E7C0
01DB40
02EE00
1FFF80
7C56E0
F9FFF4
F9FFF4
F9FFF4
F9FFF4
F9FFF4
FC02F4
FFFFF4
FFFFF4
7FFFE0
1BFF80
ENDCHAR
STARTCHAR cacute
ENCODING 263
SWIDTH 578 0
DWIDTH 10 0
BBX 11 17 0 0
BITMAP
007F40
00FBC0
01E780
01DB40
02EE00
1FFF80
7C56E0
F9FFF4
F9FFF4
F9FFF4
F9FFF4
F9FFF4
FC02F4
FFFFF4
FFFFF4
7FFFE0
1BFF80
ENDCHAR
STARTCHAR Ccircumflex
ENCODING 264
SWIDTH 578 0
DWIDTH 10 0
BBX 11 18 0 0
BITMAP
005400
01FD00
02DE00
07AB40
0B7780
0BFF80
1FFF80
7C56E0
F9FFF4
F9FFF4
F9FFF4
F9FFF4
F9FFF4
FC02F4
FFFFF4
FFFFF4
7FFFE0
1BFF80
ENDCHAR
STARTCHAR ccircumflex
ENCODING 265
SWIDTH 578 0
DWIDTH 10 0
BBX 11 18 0 0
BITMAP
005400
01FD00
03DE00
07AB00
0B7780
0BFF80
1FFF80
7C56E0
F9FFF4
F9FFF4
F9FFF4
F9FFF4
F9FFF4
FC02F4
FFFFF4
FFFFF4
7FFFE0
1BFF80
ENDCHAR
STARTCHAR Cdotaccent
ENCODING 266
SWIDTH 578 0
DWIDTH 10 0
BBX 11 17 0 0
BITMAP
005000
0BFE00
2FFF80
2FAFC0
2FFF80
2FFFC0
7C56E0
F9FFF4
F9FFF4
F9FFF4
F9FFF4
F9FFF4
FC02F4
FFFFF4
FFFFF4
7FFFE0
1BFF80
ENDCHAR
STARTCHAR cdotaccent
ENCODING 267
SWIDTH 578 0
DWIDTH 10 0
BBX 11 17 0 0
BITMAP
001000
07FE00
1FFF80
2F9FC0
2FEFC0
1FFFC0
7C56E0
F9FFF4
F9FFF4
F9FFF4
F9FFF4
F9FFF4
FC02F4
FFFFF4
FFFFF4
7FFFE0
1BFF80
ENDCHAR
STARTCHAR Ccaron
ENCODING 268
SWIDTH 578 0
DWIDTH 10 0
BBX 11 17 0 0
BITMAP
06AE00
0FFB40
0F6B40
0B5F00
07AE00
1FFF80
7C56E0
F9FFF4
F9FFF4
F9FFF4
F9FFF4
F9FFF4
FC02F4
FFFFF4
FFFFF4
7FFFE0
1BFF80
ENDCHAR
STARTCHAR ccaron
ENCODING 269
SWIDTH 578 0
DWIDTH 10 0
BBX 11 17 0 0
BITMAP
06AE00
0FFB40
0F6B40
0B5F40
07EF00
1FFF80
7C56E0
F9FFF4
F9FFF4
F9FFF4
F9FFF4
F9FFF4
FC02F4
FFFFF4
FFFFF4
7FFFE0
1BFF80
ENDCHAR
STARTCHAR Dcaron
ENCODING 270
SWIDTH 578 0
DWIDTH 10 0
BBX 11 17 0 0
BITMAP
06AE00
0FFB40
0F6B40
0B5F00
07EE00
1FFF80
7C54A0
FDFDB4
FDFDB4
FDFDB4
FDFDB4
FDFDB4
FC00F4
FFFFF4
FFFFF4
7FFFE0
1BFF80
ENDCHAR
STARTCHAR dcaron
ENCODING 271
SWIDTH 578 0
DWIDTH 10 0
BBX 11 12 0 0
BITMAP
1AAE40
715160
F3F674
F3F6F4
F3F6F4
F3F6F4
F3F6F4
F003F4
FFFFF4
FFFFF4
7FFFE0
1BFF80
ENDCHAR
STARTCHAR Dcroat
ENCODING 272
SWIDTH 578 0
DWIDTH 10 0
BBX 11 12 0 0
BITMAP
1AAA80
7C54A0
FDFDB4
F8BDB4
F47DB4
FDFDB4
FDFDB4
FC00F4
FFFFF4
FFFFF4
7FFFE0
1BFF80
ENDCHAR
STARTCHAR dcroat
ENCODING 273
SWIDTH 578 0
DWIDTH 10 0
BBX 11 12 0 0
BITMAP
1AAA80
7C54A0
FDFDB4
F8BDB4
F47DB4
FDFDB4
FDFDB4
FC00F4
FFFFF4
FFFFF4
7FFFE0
1BFF80
ENDCHAR
STARTCHAR Emacron
ENCODING 274
SWIDTH 578 0
DWIDTH 10 0
BBX 11 17 0 0
BITMAP
001000
02FF40
0FFFD0
1F57E0
0FFFD0
1FFFC0
7E55E0
FEBFF4
FEBFF4
FE02F4
FEBFF4
FEBFF4
FE00F4
FFFFF4
FFFFF4
7FFFE0
1BFF80
ENDCHAR
STARTCHAR emacron
ENCODING 275
SWIDTH 578 0
DWIDTH 10 0
BBX 11 17 0 0
BITMAP
001000
07FE00
1FFF80
2E57C0
1FFFC0
1FFF80
7855E0
F9F9F4
F955F4
F9AAF4
F9FFF4
F9ABF4
FD56F4
FFFFF4
FFFFF4
7FFFE0
1BFF80
ENDCHAR
STARTCHAR Ebreve
ENCODING 276
SWIDTH 578 0
DWIDTH 10 0
BBX 11 18 0 0
BITMAP
001000
02FF40
0FFFD0
1FBBE0
0F57D0
07FF80
1FAA80
7E55E0
FEBFF4
FEBFF4
FE02F4
FEBFF4
FEBFF4
FE00F4
FFFFF4
FFFFF4
7FFFE0
1BFF80
ENDCHAR
STARTCHAR ebreve
ENCODING 277
SWIDTH 578 0
DWIDTH 10 0
BBX 11 17 0 0
BITMAP
001000
07FE00
1FFF80
2EBBC0
1F5BC0
1FFF80
7855E0
F9F9F4
F955F4
F9AAF4
F9FFF4
F9ABF4
FD56F4
FFFFF4
FFFFF4
7FFFE0
1BFF80
ENDCHAR
STARTCHAR Edotaccent
ENCODING 278
SWIDTH 578 0
DWIDTH 10 0
BBX 11 18 0 0
BITMAP
001000
02FF40
0FFFD0
1FDFE0
0FEFD0
0BFF80
1FAA80
7E55E0
FEBFF4
FEBFF4
FE02F4
FEBFF4
FEBFF4
FE00F4
FFFFF4
FFFFF4
7FFFE0
1BFF80
ENDCHAR
STARTCHAR edotaccent
ENCODING 279
SWIDTH 578 0
DWIDTH 10 0
BBX 11 17 0 0
BITMAP
001000
07FE00
1FFF80
2F9FC0
2FEFC0
1FFFC0
7855E0
F9F9F4
F955F4
F9AAF4
F9FFF4
F9ABF4
FD56F4
FFFFF4
FFFFF4
7FFFE0
1BFF80
ENDCHAR
STARTCHAR Eogonek
ENCODING 280
SWIDTH 578 0
DWIDTH 10 0
BBX 11 12 0 0
BITMAP
1FAA80
7E55E0
FEBFF4
FEBFF4
FE02F4
FEBFF4
FEBFF4
FE00F4
FFFAF4
FFF7F4
7FF5E0
1BFF80
ENDCHAR
STARTCHAR eogonek
ENCODING 281
SWIDTH 578 0
DWIDTH 10 0
BBX 11 12 0 0
BITMAP
1FAB80
7855E0
F9F9F4
F955F4
F9AAF4
F9FFF4
F9ABF4
FD56F4
FFDFF4
FF9FF4
7FEBE0
1BFF80
ENDCHAR
STARTCHAR Ecaron
ENCODING 282
SWIDTH 578 0
DWIDTH 10 0
BBX 11 17 0 0
BITMAP
02EB40
07BBC0
077780
07D780
03EF40
1FFF80
7E55E0
FEBFF4
FEBFF4
FE02F4
FEBFF4
FEBFF4
FE00F4
FFFFF4
FFFFF4
7FFFE0
1BFF80
ENDCHAR
STARTCHAR ecaron
ENCODING 283
SWIDTH 578 0
DWIDTH 10 0
BBX 11 17 0 0
BITMAP
06AE00
0FFB40
0F6B40
0B5F00
07EE00
1FFF80
7855E0
F9F9F4
F955F4
F9AAF4
F9FFF4
F9ABF4
FD56F4
FFFFF4
FFFFF4
7FFFE0
1BFF80
ENDCHAR
STARTCHAR Gcircumflex
ENCODING 284
SWIDTH 578 0
DWIDTH 10 0
BBX 11 18 0 0
BITMAP
005400
01FD00
03DE00
07AB00
0B7740
0BFF80
1FFF80
7D55E0
FCFFF4
FCFFF4
FCF5B4
FCF9B4
FCFDB4
FD00F4
FFFFF4
FFFFF4
7FFFE0
1BFF80
ENDCHAR
STARTCHAR gcircumflex
ENCODING 285
SWIDTH 578 0
DWIDTH 10 0
BBX 11 18 0 0
BITMAP
005400
01FD00
03DE00
07AB00
0B7740
0BFF80
1FFF80
7D55E0
FCFFF4
FCFFF4
FCF5B4
FCF9B4
FCFDB4
FD00F4
FFFFF4
FFFFF4
7FFFE0
1BFF80
ENDCHAR
STARTCHAR Gbreve
ENCODING 286
SWIDTH 578 0
DWIDTH 10 0
BBX 11 18 0 0
BITMAP
001000
07FE40
1FFFC0
1FB7D0
1F57C0
0BFF40
1FAA80
7D55E0
FCFFF4
FCFFF4
FCF5B4
FCF9B4
FCFDB4
FD00F4
FFFFF4
FFFFF4
7FFFE0
1BFF80
ENDCHAR
STARTCHAR gbreve
ENCODING 287
SWIDTH 578 0
DWIDTH 10 0
BBX 11 18 0 0
BITMAP
001000
07FE00
1FFF80
2EBBC0
1F5BC0
0BFF40
1FAA80
7D55E0
FCFFF4
FCFFF4
FCF5B4
FCF9B4
FCFDB4
FD00F4
FFFFF4
FFFFF4
7FFFE0
1BFF80
ENDCHAR
STARTCHAR Gdotaccent
ENCODING 288
SWIDTH 578 0
DWIDTH 10 0
BBX 11 17 0 0
BITMAP
001000
07FE00
1FFF80
2F9FC0
2FEFC0
1FFFC0
7D55E0
FCFFF4
FCFFF4
FCF5B4
FCF9B4
FCFDB4
FD00F4
FFFFF4
FFFFF4
7FFFE0
1BFF80
ENDCHAR
STARTCHAR gdotaccent
ENCODING 289
SWIDTH 578 0
DWIDTH 10 0
BBX 11 18 0 0
BITMAP
001000
07FE00
1FFF80
2F9FC0
2FEFC0
0BFF40
1FAA80
7D55E0
FCFFF4
FCFFF4
FCF5B4
FCF9B4
FCFDB4
FD00F4
FFFFF4
FFFFF4
7FFFE0
1BFF80
ENDCHAR
STARTCHAR Gcommaaccent
ENCODING 290
SWIDTH 578 0
DWIDTH 10 0
BBX 11 12 0 0
BITMAP
1FAA80
7D55E0
FCFFF4
FCFFF4
FCF5B4
FCF9B4
FCFDB4
FD00F4
FFEFF4
FFCBF4
7FEFE0
1BFF80
ENDCHAR
STARTCHAR gcommaaccent
ENCODING 291
SWIDTH 578 0
DWIDTH 10 0
BBX 11 12 0 0
BITMAP
1FAA80
7D55E0
FCFFF4
FCFFF4
FCF5B4
FCF9B4
FCFDB4
FD00F4
FFEFF4
FFCBF4
7FEFE0
1BFF80
ENDCHAR
STARTCHAR Hcircumflex
ENCODING 292
SWIDTH 578 0
DWIDTH 10 0
BBX 11 18 0 0
BITMAP
005400
01FD00
03DE00
07AB00
0B7740
0BFF80
1FFF80
7DFDA0
FDFDB4
FCA9B4
FC54B4
FDFDB4
FDFDB4
FDFDB4
FFFFF4
FFFFF4
7FFFE0
1BFF80
ENDCHAR
STARTCHAR hcircumflex
ENCODING 293
SWIDTH 578 0
DWIDTH 10 0
BBX 11 18 0 0
BITMAP
005400
01FD00
02DE00
07AB40
0B7780
0BFF80
1FFF80
7DFDA0
FDFDB4
FCA9B4
FC54B4
FDFDB4
FDFDB4
FDFDB4
FFFFF4
FFFFF4
7FFFE0
1BFF80
ENDCHAR
STARTCHAR Hbar
ENCODING 294
SWIDTH 578 0
DWIDTH 10 0
BBX 11 18 0 0
BITMAP
001000
07FE40
1FFFC0
1E57D0
1FFFC0
0BFF40
1AFE40
7DFDA0
FDFDB4
FCA9B4
FC54B4
FDFDB4
FDFDB4
FDFDB4
FFFFF4
FFFFF4
7FFFE0
1BFF80
ENDCHAR
STARTCHAR hbar
ENCODING 295
SWIDTH 578 0
DWIDTH 10 0
BBX 11 12 0 0
BITMAP
1AFE40
7DFDA0
F85474
FCA9B4
FC54B4
FDFDB4
FDFDB4
FDFDB4
FFFFF4
FFFFF4
7FFFE0
1BFF80
ENDCHAR
STARTCHAR Itilde
ENCODING 296
SWIDTH 578 0
DWIDTH 10 0
BBX 11 18 0 0
BITMAP
01A900
07FF80
0FFFD0
0FAAE0
0E52D0
07FF80
1EAA80
7D45E0
FFDFF4
FFDFF4
FFDFF4
FFDFF4
FFDFF4
FD00B4
FFFFF4
FFFFF4
7FFFE0
1BFF80
ENDCHAR
STARTCHAR itilde
ENCODING 297
SWIDTH 578 0
DWIDTH 10 0
BBX 11 18 0 0
BITMAP
01A900
07FF80
0FFFD0
1FBAE0
0E52D0
0BFF80
1EAA80
7D45E0
FFDFF4
FFDFF4
FFDFF4
FFDFF4
FFDFF4
FD00B4
FFFFF4
FFFFF4
7FFFE0
1BFF80
ENDCHAR
STARTCHAR Imacron
ENCODING 298
SWIDTH 578 0
DWIDTH 10 0
BBX 11 17 0 0
BITMAP
001000
06FF40
0FFFD0
1F57D0
0FFFD0
1FFFC0
7D45E0
FFDFF4
FFDFF4
FFDFF4
FFDFF4
FFDFF4
FD00B4
FFFFF4
FFFFF4
7FFFE0
1BFF80
ENDCHAR
STARTCHAR imacron
ENCODING 299
SWIDTH 578 0
DWIDTH 10 0
BBX 11 17 0 0
BITMAP
001000
06FF40
0FFFD0
1F57D0
0FFFD0
1FFFC0
7D45E0
FFDFF4
FFDFF4
FFDFF4
FFDFF4
FFDFF4
FD00B4
FFFFF4
FFFFF4
7FFFE0
1BFF80
ENDCHAR
STARTCHAR Ibreve
ENCODING 300
SWIDTH 578 0
DWIDTH 10 0
BBX 11 18 0 0
BITMAP
001000
02FF40
0FFFD0
0FBAE0
0F97D0
07FF80
1EAA80
7D45E0
FFDFF4
FFDFF4
FFDFF4
FFDFF4
FFDFF4
FD00B4
FFFFF4
FFFFF4
7FFFE0
1BFF80
ENDCHAR
STARTCHAR ibreve
ENCODING 301
SWIDTH 578 0
DWIDTH 10 0
BBX 11 18 0 0
BITMAP
001000
02FF40
0FFFD0
1FBBE0
0F57D0
07FF80
1EAA80
7D45E0
FFDFF4
FFDFF4
FFDFF4
FFDFF4
FFDFF4
FD00B4
FFFFF4
FFFFF4
7FFFE0
1BFF80
ENDCHAR
STARTCHAR Iogonek
ENCODING 302
SWIDTH 578 0
DWIDTH 10 0
BBX 11 12 0 0
BITMAP
1EAA80
7D45E0
FFDFF4
FFDFF4
FFDFF4
FFDFF4
FFDFF4
FD00B4
FFF9F4
FFF6F4
7FF9A0
1BFF80
ENDCHAR
STARTCHAR iogonek
ENCODING 303
SWIDTH 578 0
DWIDTH 10 0
BBX 11 12 0 0
BITMAP
1EAA80
7D45E0
FFDFF4
FFDFF4
FFDFF4
FFDFF4
FFDFF4
FD00B4
FFF9F4
FFF6F4
7FF9A0
1BFF80
ENDCHAR
STARTCHAR Idotaccent
ENCODING 304
SWIDTH 578 0
DWIDTH 10 0
BBX 11 17 0 0
BITMAP
001000
07FE40
1FFFC0
1F9FD0
1FEFC0
1FFFC0
7D45E0
FFDFF4
FFDFF4
FFDFF4
FFDFF4
FFDFF4
FD00B4
FFFFF4
FFFFF4
7FFFE0
1BFF80
ENDCHAR
STARTCHAR dotlessi
ENCODING 305
SWIDTH 578 0
DWIDTH 10 0
BBX 11 12 0 0
BITMAP
1EAA80
7D45E0
FFDFF4
FFDFF4
FFDFF4
FFDFF4
FFDFF4
FD00B4
FFFFF4
FFFFF4
7FFFE0
1BFF80
ENDCHAR
STARTCHAR IJ
ENCODING 306
SWIDTH 578 0
DWIDTH 10 0
BBX 11 12 0 0
BITMAP
1ABF40
647E60
FCFE74
FCFE74
FCFE74
FCFE74
FCFE74
E020B4
FFFFF4
FFFFF4
7FFFE0
1BFF80
ENDCHAR
STARTCHAR ij
ENCODING 307
SWIDTH 578 0
DWIDTH 10 0
BBX 11 12 0 0
BITMAP
1ABF40
647E60
FCFE74
FCFE74
FCFE74
FCFE74
FCFE74
E020B4
FFFFF4
FFFFF4
7FFFE0
1BFF80
ENDCHAR
STARTCHAR Jcircumflex
ENCODING 308
SWIDTH 578 0
DWIDTH 10 0
BBX 11 18 0 0
BITMAP
005400
01FD00
02DF00
03AB40
0B7780
0BFF80
1FFFC0
7FF3E0
FFF3F4
FFF3F4
FFF3F4
FFF3F4
FFF3F4
FF07F4
FFFFF4
FFFFF4
7FFFE0
1BFF80
ENDCHAR
STARTCHAR jcircumflex
ENCODING 309
SWIDTH 578 0
DWIDTH 10 0
BBX 11 18 0 0
BITMAP
005400
01FD00
02DF00
03AB40
0B7780
0BFF80
1FFFC0
7FF3E0
FFF3F4
FFF3F4
FFF3F4
FFF3F4
FFF3F4
FF07F4
FFFFF4
FFFFF4
7FFFE0
1BFF80
ENDCHAR
STARTCHAR Kcommaaccent
ENCODING 310
SWIDTH 578 0
DWIDTH 10 0
BBX 11 12 0 0
BITMAP
1FFF40
7E7DA0
FE76F4
FE5BF4
FE0FF4
FE67F4
FE75F4
FE7DB4
FFEFF4
FFCBF4
7FEFE0
1BFF80
ENDCHAR
STARTCHAR kcommaaccent
ENCODING 311
SWIDTH 578 0
DWIDTH 10 0
BBX 11 12 0 0
BITMAP
1FFF40
7E7DA0
FE76F4
FE5BF4
FE0FF4
FE67F4
FE75F4
FE7DB4
FFEFF4
FFCBF4
7FEFE0
1BFF80
ENDCHAR
STARTCHAR kgreenlandic
ENCODING 312
SWIDTH 578 0
DWIDTH 10 0
BBX 11 12 0 0
BITMAP
1FFF40
7E7DA0
FE76F4
FE5BF4
FE0FF4
FE67F4
FE75F4
FE7DB4
FFFFF4
FFFFF4
7FFFE0
1BFF80
ENDCHAR
STARTCHAR Lacute
ENCODING 313
SWIDTH 578 0
DWIDTH 10 0
BBX 11 17 0 0
BITMAP
01FD00
03EF00
079E00
076D00
0BB800
1FFF80
7F3FE0
FF3FF4
FF3FF4
FF3FF4
FF3FF4
FF3FF4
FF01F4
FFFFF4
FFFFF4
7FFFE0
1BFF80
ENDCHAR
STARTCHAR lacute
ENCODING 314
SWIDTH 578 0
DWIDTH 10 0
BBX 11 17 0 0
BITMAP
01FD00
03EF00
079E00
076D00
0BB800
1FFF80
7F3FE0
FF3FF4
FF3FF4
FF3FF4
FF3FF4
FF3FF4
FF01F4
FFFFF4
FFFFF4
7FFFE0
1BFF80
ENDCHAR
STARTCHAR Lcommaaccent
ENCODING 315
SWIDTH 578 0
DWIDTH 10 0
BBX 11 12 0 0
BITMAP
1FBF80
7F3FE0
FF3FF4
FF3FF4
FF3FF4
FF3FF4
FF3FF4
FF01F4
FFEFF4
FFCBF4
7FEFE0
1BFF80
ENDCHAR
STARTCHAR lcommaaccent
ENCODING 316
SWIDTH 578 0
DWIDTH 10 0
BBX 11 12 0 0
BITMAP
1FBF80
7F3FE0
FF3FF4
FF3FF4
FF3FF4
FF3FF4
FF3FF4
FF01F4
FFEFF4
FFCBF4
7FEFE0
1BFF80
ENDCHAR
STARTCHAR Lcaron
ENCODING 317
SWIDTH 578 0
DWIDTH 10 0
BBX 11 12 0 0
BITMAP
1FBB80
7F32E0
FF37F4
FF3FF4
FF3FF4
FF3FF4
FF3FF4
FF01F4
FFFFF4
FFFFF4
7FFFE0
1BFF80
ENDCHAR
STARTCHAR lcaron
ENCODING 318
SWIDTH 578 0
DWIDTH 10 0
BBX 11 12 0 0
BITMAP
1FBB80
7F32E0
FF37F4
FF3FF4
FF3FF4
FF3FF4
FF3FF4
FF01F4
FFFFF4
FFFFF4
7FFFE0
1BFF80
ENDCHAR
STARTCHAR Ldot
ENCODING 319
SWIDTH 578 0
DWIDTH 10 0
BBX 11 12 0 0
BITMAP
1FBF80
7F3FE0
FF3FF4
FF23F4
FF3FF4
FF3FF4
FF3FF4
FF01F4
FFFFF4
FFFFF4
7FFFE0
1BFF80
ENDCHAR
STARTCHAR ldot
ENCODING 320
SWIDTH 578 0
DWIDTH 10 0
BBX 11 12 0 0
BITMAP
1FBF80
7F3FE0
FF3FF4
FF23F4
FF3FF4
FF3FF4
FF3FF4
FF01F4
FFFFF4
FFFFF4
7FFFE0
1BFF80
ENDCHAR
STARTCHAR Lslash
ENCODING 321
SWIDTH 578 0
DWIDTH 10 0
BBX 11 12 0 0
BITMAP
1FBF80
7F3FE0
FF3FF4
FF1FF4
FD3FF4
FF3FF4
FF3FF4
FF01F4
FFFFF4
FFFFF4
7FFFE0
1BFF80
ENDCHAR
STARTCHAR lslash
ENCODING 322
SWIDTH 578 0
DWIDTH 10 0
BBX 11 12 0 0
BITMAP
1FBF80
7F3FE0
FF3FF4
FF1FF4
FD3FF4
FF3FF4
FF3FF4
FF01F4
FFFFF4
FFFFF4
7FFFE0
1BFF80
ENDCHAR
STARTCHAR Nacute
ENCODING 323
SWIDTH 578 0
DWIDTH 10 0
BBX 11 17 0 0
BITMAP
00BE00
00FB80
01DB80
02DF00
02ED00
1BFF80
7854E0
F9FDB4
F9FDB4
F9FDB4
F9FDB4
F9FDB4
F9FDB4
FFFFF4
FFFFF4
7FFFE0
1BFF80
ENDCHAR
STARTCHAR nacute
ENCODING 324
SWIDTH 578 0
DWIDTH 10 0
BBX 11 17 0 0
BITMAP
00BE00
00FB80
01DB80
02DF00
02ED00
1BFF80
7854E0
F9FDB4
F9FDB4
F9FDB4
F9FDB4
F9FDB4
F9FDB4
FFFFF4
FFFFF4
7FFFE0
1BFF80
ENDCHAR
STARTCHAR Ncommaaccent
ENCODING 325
SWIDTH 578 0
DWIDTH 10 0
BBX 11 12 0 0
BITMAP
1BAB80
7854E0
F9FDB4
F9FDB4
F9FDB4
F9FDB4
F9FDB4
F9FDB4
FFEFF4
FFCBF4
7FEFE0
1BFF80
ENDCHAR
STARTCHAR ncommaaccent
ENCODING 326
SWIDTH 578 0
DWIDTH 10 0
BBX 11 12 0 0
BITMAP
1BAB80
7854E0
F9FDB4
F9FDB4
F9FDB4
F9FDB4
F9FDB4
F9FDB4
FFEFF4
FFCBF4
7FEFE0
1BFF80
ENDCHAR
STARTCHAR Ncaron
ENCODING 327
SWIDTH 578 0
DWIDTH 10 0
BBX 11 17 0 0
BITMAP
06AE00
0FFB40
0F6B40
0B5F00
07EE00
1FFF80
7854E0
F9FDB4
F9FDB4
F9FDB4
F9FDB4
F9FDB4
F9FDB4
FFFFF4
FFFFF4
7FFFE0
1BFF80
ENDCHAR
STARTCHAR ncaron
ENCODING 328
SWIDTH 578 0
DWIDTH 10 0
BBX 11 17 0 0
BITMAP
06AE00
0FFB40
0F6B40
0B5F00
07EE00
1FFF80
7854E0
F9FDB4
F9FDB4
F9FDB4
F9FDB4
F9FDB4
F9FDB4
FFFFF4
FFFFF4
7FFFE0
1BFF80
ENDCHAR
STARTCHAR napostrophe
ENCODING 329
SWIDTH 578 0
DWIDTH 10 0
BBX 11 12 0 0
BITMAP
1BAB80
6854E0
C9FDB4
E9FDB4
F9FDB4
F9FDB4
F9FDB4
F9FDB4
FFFFF4
FFFFF4
7FFFE0
1BFF80
ENDCHAR
STARTCHAR Eng
ENCODING 330
SWIDTH 578 0
DWIDTH 10 0
BBX 11 12 0 0
BITMAP
1BAB80
7854E0
F9FDB4
F9FDB4
F9FDB4
F9FDB4
F9FDB4
F9FDB4
FFFDB4
FFE8B4
7FE6E0
1BFF80
ENDCHAR
STARTCHAR eng
ENCODING 331
SWIDTH 578 0
DWIDTH 10 0
BBX 11 12 0 0
BITMAP
1BAB80
7854E0
F9FDB4
F9FDB4
F9FDB4
F9FDB4
F9FDB4
F9FDB4
FFFDB4
FFE8B4
7FE6E0
1BFF80
ENDCHAR
STARTCHAR Omacron
ENCODING 332
SWIDTH 578 0
DWIDTH 10 0
BBX 11 17 0 0
BITMAP
001000
06FF40
0FFFD0
1F57D0
0FFFD0
1FFFC0
7C54A0
FDFDB4
FDFDB4
FDFDB4
FDFDB4
FDFDB4
FD00F4
FFFFF4
FFFFF4
7FFFE0
1BFF80
ENDCHAR
STARTCHAR omacron
ENCODING 333
SWIDTH 578 0
DWIDTH 10 0
BBX 11 17 0 0
BITMAP
001000
06FF40
0FFFD0
1F57D0
0FFFD0
1FFFC0
7C54A0
FDFDB4
FDFDB4
FDFDB4
FDFDB4
FDFDB4
FD00F4
FFFFF4
FFFFF4
7FFFE0
1BFF80
ENDCHAR
STARTCHAR Obreve
ENCODING 334
SWIDTH 578 0
DWIDTH 10 0
BBX 11 18 0 0
BITMAP
001000
06FF40
0FFFD0
1FBBD0
0F57D0
07FF80
1FAA80
7C54A0
FDFDB4
FDFDB4
FDFDB4
FDFDB4
FDFDB4
FD00F4
FFFFF4
FFFFF4
7FFFE0
1BFF80
ENDCHAR
STARTCHAR obreve
ENCODING 335
SWIDTH 578 0
DWIDTH 10 0
BBX 11 18 0 0
BITMAP
001000
06FF40
0FFFD0
1FBBD0
0F57D0
07FF80
1FAA80
7C54A0
FDFDB4
FDFDB4
FDFDB4
FDFDB4
FDFDB4
FD00F4
FFFFF4
FFFFF4
7FFFE0
1BFF80
ENDCHAR
STARTCHAR Ohungarumlaut
ENCODING 336
SWIDTH 578 0
DWIDTH 10 0
BBX 11 18 0 0
BITMAP
000440
007FD0
00FBB0
01EAB4
03DDE0
03FFC0
1FFFC0
7C54A0
FDFDB4
FDFDB4
FDFDB4
FDFDB4
FDFDB4
FD00F4
FFFFF4
FFFFF4
7FFFE0
1BFF80
ENDCHAR
STARTCHAR ohungarumlaut
ENCODING 337
SWIDTH 578 0
DWIDTH 10 0
BBX 11 18 0 0
BITMAP
000440
007FD0
00FBB0
01EAB4
03DDE0
03FFC0
1FFFC0
7C54A0
FDFDB4
FDFDB4
FDFDB4
FDFDB4
FDFDB4
FD00F4
FFFFF4
FFFFF4
7FFFE0
1BFF80
ENDCHAR
STARTCHAR OE
ENCODING 338
SWIDTH 578 0
DWIDTH 10 0
BBX 11 12 0 0
BITMAP
1ABA40
7545A0
F3DFF4
F3DBF4
F3D0B4
F3DFF4
F3DFF4
F40074
FFFFF4
FFFFF4
7FFFE0
1BFF80
ENDCHAR
STARTCHAR oe
ENCODING 339
SWIDTH 578 0
DWIDTH 10 0
BBX 11 12 0 0
BITMAP
1ABA40
7545A0
F3DFF4
F3DBF4
F3D0B4
F3DFF4
F3DFF4
F40074
FFFFF4
FFFFF4
7FFFE0
1BFF80
ENDCHAR
STARTCHAR Racute
ENCODING 340
SWIDTH 578 0
DWIDTH 10 0
BBX 11 17 0 0
BITMAP
00BE00
00FB80
01DB80
02DF00
02ED00
1FFF80
7C55E0
FCFCF4
FCFDF4
FC02F4
FCF9F4
FCFCF4
FCFCF4
FFFFF4
FFFFF4
7FFFE0
1BFF80
ENDCHAR
STARTCHAR racute
ENCODING 341
SWIDTH 578 0
DWIDTH 10 0
BBX 11 17 0 0
BITMAP
00BE00
00FB80
01DB80
02DF00
02ED00
1FFF80
7C55E0
FCFCF4
FCFDF4
FC02F4
FCF9F4
FCFCF4
FCFCF4
FFFFF4
FFFFF4
7FFFE0
1BFF80
ENDCHAR
STARTCHAR Rcommaaccent
ENCODING 342
SWIDTH 578 0
DWIDTH 10 0
BBX 11 12 0 0
BITMAP
1EAB80
7C55E0
FCFCF4
FCFDF4
FC02F4
FCF9F4
FCFCF4
FCFCF4
FFEFF4
FFCBF4
7FEFE0
1BFF80
ENDCHAR
STARTCHAR rcommaaccent
ENCODING 343
SWIDTH 578 0
DWIDTH 10 0
BBX 11 12 0 0
BITMAP
1EAB80
7C55E0
FCFCF4
FCFDF4
FC02F4
FCF9F4
FCFCF4
FCFCF4
FFEFF4
FFCBF4
7FEFE0
1BFF80
ENDCHAR
STARTCHAR Rcaron
ENCODING 344
SWIDTH 578 0
DWIDTH 10 0
BBX 11 17 0 0
BITMAP
06AE00
0FFB40
0F6B40
0B5F00
07EE00
1FFF80
7C55E0
FCFCF4
FCFDF4
FC02F4
FCF9F4
FCFCF4
FCFCF4
FFFFF4
FFFFF4
7FFFE0
1BFF80
ENDCHAR
STARTCHAR rcaron
ENCODING 345
SWIDTH 578 0
DWIDTH 10 0
BBX 11 17 0 0
BITMAP
06AE00
0FFB40
0F6B40
0B5F00
07EE00
1FFF80
7C55E0
FCFCF4
FCFDF4
FC02F4
FCF9F4
FCFCF4
FCFCF4
FFFFF4
FFFFF4
7FFFE0
1BFF80
ENDCHAR
STARTCHAR Sacute
ENCODING 346
SWIDTH 578 0
DWIDTH 10 0
BBX 11 17 0 0
BITMAP
007F40
00BBC0
00E7C0
01EB40
01EE00
1FFF80
7D55E0
FCFFF4
FCBFF4
FE54F4
FFFDB4
FFFDB4
FD01F4
FFFFF4
FFFFF4
7FFFE0
1BFF80
ENDCHAR
STARTCHAR sacute
ENCODING 347
SWIDTH 578 0
DWIDTH 10 0
BBX 11 17 0 0
BITMAP
007F40
00BBC0
00E7C0
01EB40
01EE00
1FFF80
7D55E0
FCFFF4
FCBFF4
FE54F4
FFFDB4
FFFDB4
FD01F4
FFFFF4
FFFFF4
7FFFE0
1BFF80
ENDCHAR
STARTCHAR Scircumflex
ENCODING 348
SWIDTH 578 0
DWIDTH 10 0
BBX 11 18 0 0
BITMAP
001400
00FD00
02DB00
03D740
077780
07FFC0
1FFFC0
7D55E0
FCFFF4
FCBFF4
FE54F4
FFFDB4
FFFDB4
FD01F4
FFFFF4
FFFFF4
7FFFE0
1BFF80
ENDCHAR
STARTCHAR scircumflex
ENCODING 349
SWIDTH 578 0
DWIDTH 10 0
BBX 11 18 0 0
BITMAP
001400
00FD00
02DB00
03D740
077780
07FFC0
1FFFC0
7D55E0
FCFFF4
FCBFF4
FE54F4
FFFDB4
FFFDB4
FD01F4
FFFFF4
FFFFF4
7FFFE0
1BFF80
ENDCHAR
STARTCHAR Scedilla
ENCODING 350
SWIDTH 578 0
DWIDTH 10 0
BBX 11 12 0 0
BITMAP
1FAA80
7D55E0
FCFFF4
FCBFF4
FE54F4
FFFDB4
FFFDB4
FD01F4
FF8FF4
FF6FF4
7F9FE0
1BFF80
ENDCHAR
STARTCHAR scedilla
ENCODING 351
SWIDTH 578 0
DWIDTH 10 0
BBX 11 12 0 0
BITMAP
1FAA80
7D55E0
FCFFF4
FCBFF4
FE54F4
FFFDB4
FFFDB4
FD01F4
FF8FF4
FF6FF4
7F9FE0
1BFF80
ENDCHAR
STARTCHAR Scaron
ENCODING 352
SWIDTH 578 0
DWIDTH 10 0
BBX 11 17 0 0
BITMAP
02EB40
07BFC0
07A7C0
03D780
02EF40
1FFF80
7D55E0
FCFFF4
FCBFF4
FE54F4
FFFDB4
FFFDB4
FD01F4
FFFFF4
FFFFF4
7FFFE0
1BFF80
ENDCHAR
STARTCHAR scaron
ENCODING 353
SWIDTH 578 0
DWIDTH 10 0
BBX 11 17 0 0
BITMAP
02EB40
07BFC0
07A7C0
03D780
02EF40
1FFF80
7D55E0
FCFFF4
FCBFF4
FE54F4
FFFDB4
FFFDB4
FD01F4
FFFFF4
FFFFF4
7FFFE0
1BFF80
ENDCHAR
STARTCHAR Tcommaaccent
ENCODING 354
SWIDTH 578 0
DWIDTH 10 0
BBX 11 12 0 0
BITMAP
1EAA80
7D45E0
FFDFF4
FFDFF4
FFDFF4
FFDFF4
FFDFF4
FFDFF4
FFEFF4
FFCBF4
7FEFE0
1BFF80
ENDCHAR
STARTCHAR tcommaaccent
ENCODING 355
SWIDTH 578 0
DWIDTH 10 0
BBX 11 12 0 0
BITMAP
1EAA80
7D45E0
FFDFF4
FFDFF4
FFDFF4
FFDFF4
FFDFF4
FFDFF4
FFEFF4
FFCBF4
7FEFE0
1BFF80
ENDCHAR
STARTCHAR Tcaron
ENCODING 356
SWIDTH 578 0
DWIDTH 10 0
BBX 11 17 0 0
BITMAP
02EA40
0BBB80
0B7780
079B40
03DF40
1FFF80
7D45E0
FFDFF4
FFDFF4
FFDFF4
FFDFF4
FFDFF4
FFDFF4
FFFFF4
FFFFF4
7FFFE0
1BFF80
ENDCHAR
STARTCHAR tcaron
ENCODING 357
SWIDTH 578 0
DWIDTH 10 0
BBX 11 12 0 0
BITMAP
1EAA80
7D45E0
FFD9F4
FFD9F4
FFDEF4
FFDFF4
FFDFF4
FFDFF4
FFFFF4
FFFFF4
7FFFE0
1BFF80
ENDCHAR
STARTCHAR Tbar
ENCODING 358
SWIDTH 578 0
DWIDTH 10 0
BBX 11 12 0 0
BITMAP
1EAA80
7D45E0
FFDFF4
FFDFF4
FF42F4
FFDFF4
FFDFF4
FFDFF4
FFFFF4
FFFFF4
7FFFE0
1BFF80
ENDCHAR
STARTCHAR tbar
ENCODING 359
SWIDTH 578 0
DWIDTH 10 0
BBX 11 12 0 0
BITMAP
1EAA80
7D45E0
FFDFF4
FFDFF4
FF42F4
FFDFF4
FFDFF4
FFDFF4
FFFFF4
FFFFF4
7FFFE0
1BFF80
ENDCHAR
STARTCHAR Utilde
ENCODING 360
SWIDTH 578 0
DWIDTH 10 0
BBX 11 18 0 0
BITMAP
01A900
07FF80
0FFFD0
1FBAE0
0E52D0
0BFF80
1AFE40
79FDA0
F9FDB4
F9FDB4
F9FDB4
F9FDB4
F9FDB4
FD00F4
FFFFF4
FFFFF4
7FFFE0
1BFF80
ENDCHAR
STARTCHAR utilde
ENCODING 361
SWIDTH 578 0
DWIDTH 10 0
BBX 11 18 0 0
BITMAP
01A900
07FF80
0FFFD0
1FBAE0
0E52D0
0BFF80
1AFE40
79FDA0
F9FDB4
F9FDB4
F9FDB4
F9FDB4
F9FDB4
FD00F4
FFFFF4
FFFFF4
7FFFE0
1BFF80
ENDCHAR
STARTCHAR Umacron
ENCODING 362
SWIDTH 578 0
DWIDTH 10 0
BBX 11 17 0 0
BITMAP
001000
02FF40
0FFFD0
1F57E0
0FFFD0
1FFFC0
79FDA0
F9FDB4
F9FDB4
F9FDB4
F9FDB4
F9FDB4
FD00F4
FFFFF4
FFFFF4
7FFFE0
1BFF80
ENDCHAR
STARTCHAR umacron
ENCODING 363
SWIDTH 578 0
DWIDTH 10 0
BBX 11 17 0 0
BITMAP
001000
02FF40
0FFFD0
1F57E0
0FFFD0
1FFFC0
79FDA0
F9FDB4
F9FDB4
F9FDB4
F9FDB4
F9FDB4
FD00F4
FFFFF4
FFFFF4
7FFFE0
1BFF80
ENDCHAR
STARTCHAR Ubreve
ENCODING 364
SWIDTH 578 0
DWIDTH 10 0
BBX 11 18 0 0
BITMAP
001000
02FF40
0FFFD0
1FBBE0
0F57D0
07FF80
1AFE40
79FDA0
F9FDB4
F9FDB4
F9FDB4
F9FDB4
F9FDB4
FD00F4
FFFFF4
FFFFF4
7FFFE0
1BFF80
ENDCHAR
STARTCHAR ubreve
ENCODING 365
SWIDTH 578 0
DWIDTH 10 0
BBX 11 18 0 0
BITMAP
001000
02FF40
0FFFD0
1FBBE0
0F57D0
07FF80
1AFE40
79FDA0
F9FDB4
F9FDB4
F9FDB4
F9FDB4
F9FDB4
FD00F4
FFFFF4
FFFFF4
7FFFE0
1BFF80
ENDCHAR
STARTCHAR Uring
ENCODING 366
SWIDTH 578 0
DWIDTH 10 0
BBX 11 18 0 0
BITMAP
006400
03FF00
0B5780
0B77C0
0B5780
07FF40
1AFE40
79FDA0
F9FDB4
F9FDB4
F9FDB4
F9FDB4
F9FDB4
FD00F4
FFFFF4
FFFFF4
7FFFE0
1BFF80
ENDCHAR
STARTCHAR uring
ENCODING 367
SWIDTH 578 0
DWIDTH 10 0
BBX 11 18 0 0
BITMAP
006400
02FF00
075780
0B77C0
0B9780
07FF40
1AFE40
79FDA0
F9FDB4
F9FDB4
F9FDB4
F9FDB4
F9FDB4
FD00F4
FFFFF4
FFFFF4
7FFFE0
1BFF80
ENDCHAR
STARTCHAR Uhungarumlaut
ENCODING 368
SWIDTH 581 0
DWIDTH 10 0
BBX 11 18 0 0
BITMAP
000440
007FE0
00BBB0
01EAB4
03DDE0
03FFC0
1BFF80
79FDA0
F9FDB4
F9FDB4
F9FDB4
F9FDB4
F9FDB4
FD00F4
FFFFF4
FFFFF4
7FFFE0
1BFF80
ENDCHAR
STARTCHAR uhungarumlaut
ENCODING 369
SWIDTH 582 0
DWIDTH 10 0
BBX 11 18 0 0
BITMAP
000440
007FE0
00BBB0
01EAB4
03DDE0
03FFC0
1BFF80
79FDA0
F9FDB4
F9FDB4
F9FDB4
F9FDB4
F9FDB4
FD00F4
FFFFF4
FFFFF4
7FFFE0
1BFF80
ENDCHAR
STARTCHAR Uogonek
ENCODING 370
SWIDTH 578 0
DWIDTH 10 0
BBX 11 12 0 0
BITMAP
1AFE40
79FDA0
F9FDB4
F9FDB4
F9FDB4
F9FDB4
F9FDB4
FD00F4
FFDBF4
FF9FF4
7FD7E0
1BFF80
ENDCHAR
STARTCHAR uogonek
ENCODING 371
SWIDTH 578 0
DWIDTH 10 0
BBX 11 12 0 0
BITMAP
1AFE40
79FDA0
F9FDB4
F9FDB4
F9FDB4
F9FDB4
F9FDB4
FD00F4
FFDBF4
FF9FF4
7FD7E0
1BFF80
ENDCHAR
STARTCHAR Wcircumflex
ENCODING 372
SWIDTH 578 0
DWIDTH 10 0
BBX 11 18 0 0
BITMAP
005400
01FD00
03DE00
07AB00
0B7740
0BFF80
1FFF80
73CF20
F38E74
F68A74
F65A74
F665B4
FA35B4
F874F4
FFFFF4
FFFFF4
7FFFE0
1BFF80
ENDCHAR
STARTCHAR wcircumflex
ENCODING 373
SWIDTH 578 0
DWIDTH 10 0
BBX 11 18 0 0
BITMAP
005400
01FD00
03DE00
07AB00
0B7740
0BFF80
1FFF80
73CF20
F38E74
F68A74
F65A74
F665B4
FA35B4
F874F4
FFFFF4
FFFFF4
7FFFE0
1BFF80
ENDCHAR
STARTCHAR Ycircumflex
ENCODING 374
SWIDTH 578 0
DWIDTH 10 0
BBX 11 18 0 0
BITMAP
005400
01FD00
02DF00
03AB40
077780
0BFF80
1FFF80
7DBCE0
FE75F4
FF33F4
FF97F4
FFCBF4
FFCFF4
FFCFF4
FFFFF4
FFFFF4
7FFFE0
1BFF80
ENDCHAR
STARTCHAR ycircumflex
ENCODING 375
SWIDTH 578 0
DWIDTH 10 0
BBX 11 18 0 0
BITMAP
005400
01FD00
02DF00
03AB40
077780
0BFF80
1FFF80
7DBCE0
FE75F4
FF33F4
FF97F4
FFCBF4
FFCFF4
FFCFF4
FFFFF4
FFFFF4
7FFFE0
1BFF80
ENDCHAR
STARTCHAR Ydieresis
ENCODING 376
SWIDTH 578 0
DWIDTH 10 0
BBX 11 16 0 0
BITMAP
02FE00
0BFFC0
0F32C0
0BFFC0
1FFF80
7DBCE0
FE75F4
FF33F4
FF97F4
FFCBF4
FFCFF4
FFCFF4
FFFFF4
FFFFF4
7FFFE0
1BFF80
ENDCHAR
STARTCHAR Zacute
ENCODING 377
SWIDTH 578 0
DWIDTH 10 0
BBX 11 17 0 0
BITMAP
00BE00
02EF40
02CF00
039E00
07FC00
1FFF80
7E52E0
FFF3F4
FFDBF4
FFCFF4
FF6FF4
FE7FF4
FD01F4
FFFFF4
FFFFF4
7FFFE0
1BFF80
ENDCHAR
STARTCHAR zacute
ENCODING 378
SWIDTH 578 0
DWIDTH 10 0
BBX 11 17 0 0
BITMAP
00BE00
02EF40
02CF00
039E00
07FC00
1FFF80
7E52E0
FFF3F4
FFDBF4
FFCFF4
FF6FF4
FE7FF4
FD01F4
FFFFF4
FFFFF4
7FFFE0
1BFF80
ENDCHAR
STARTCHAR Zdotaccent
ENCODING 379
SWIDTH 578 0
DWIDTH 10 0
BBX 11 17 0 0
BITMAP
001000
07FE00
1FFF80
2F9FC0
2FEFC0
1FFFC0
7E52E0
FFF3F4
FFDBF4
FFCFF4
FF6FF4
FE7FF4
FD01F4
FFFFF4
FFFFF4
7FFFE0
1BFF80
ENDCHAR
STARTCHAR zdotaccent
ENCODING 380
SWIDTH 578 0
DWIDTH 10 0
BBX 11 17 0 0
BITMAP
001000
07FE00
1FFF80
2F9FC0
2FEFC0
1FFFC0
7E52E0
FFF3F4
FFDBF4
FFCFF4
FF6FF4
FE7FF4
FD01F4
FFFFF4
FFFFF4
7FFFE0
1BFF80
ENDCHAR
STARTCHAR Zcaron
ENCODING 381
SWIDTH 578 0
DWIDTH 10 0
BBX 11 17 0 0
BITMAP
06AE00
0FBB80
0B7740
0B9B40
07EF00
1FFF80
7E52E0
FFF3F4
FFDBF4
FFCFF4
FF6FF4
FE7FF4
FD01F4
FFFFF4
FFFFF4
7FFFE0
1BFF80
ENDCHAR
STARTCHAR zcaron
ENCODING 382
SWIDTH 578 0
DWIDTH 10 0
BBX 11 17 0 0
BITMAP
06AE00
0FBB80
0B7740
0B9B40
07EF00
1FFF80
7E52E0
FFF3F4
FFDBF4
FFCFF4
FF6FF4
FE7FF4
FD01F4
FFFFF4
FFFFF4
7FFFE0
1BFF80
ENDCHAR
STARTCHAR longs
ENCODING 383
SWIDTH 578 0
DWIDTH 10 0
BBX 11 12 0 0
BITMAP
1FFF80
7F57E0
FDF9F4
FAFDF4
FADEB4
FDDDF4
FFDBF4
FFEFF4
FFFFF4
FFFFF4
7FFFE0
1BFF80
ENDCHAR
STARTCHAR florin
ENCODING 402
SWIDTH 578 0
DWIDTH 10 0
BBX 11 12 0 0
BITMAP
1FEB80
7F97E0
FF6FF4
FF6FF4
FE1BF4
FF6FF4
FF6FF4
FF6FF4
FF6FF4
FD7FF4
7FFFE0
1BFF80
ENDCHAR
STARTCHAR uni01CD
ENCODING 461
SWIDTH 578 0
DWIDTH 10 0
BBX 11 17 0 0
BITMAP
06EA40
0BBB80
0B7780
079B40
03DF00
1FFF80
7D55E0
FDF9F4
FCFCF4
FCA4F4
FCA8F4
F9FDB4
F9FDB4
FFFFF4
FFFFF4
7FFFE0
1BFF80
ENDCHAR
STARTCHAR uni01CE
ENCODING 462
SWIDTH 578 0
DWIDTH 10 0
BBX 11 17 0 0
BITMAP
02EB40
0BBBC0
077780
07D780
03EF40
1FFF80
7D55E0
FFF9F4
FFF9F4
FD55F4
F9F9F4
F9F9F4
FC01F4
FFFFF4
FFFFF4
7FFFE0
1BFF80
ENDCHAR
STARTCHAR uni01CF
ENCODING 463
SWIDTH 578 0
DWIDTH 10 0
BBX 11 17 0 0
BITMAP
02EB40
07BFC0
07A7C0
03D780
03EF40
1FFF80
7D45E0
FFDFF4
FFDFF4
FFDFF4
FFDFF4
FFDFF4
FD00B4
FFFFF4
FFFFF4
7FFFE0
1BFF80
ENDCHAR
STARTCHAR uni01D0
ENCODING 464
SWIDTH 578 0
DWIDTH 10 0
BBX 11 17 0 0
BITMAP
02EB40
07BBC0
0777C0
07D780
03EF40
1FFF80
7D45E0
FFDFF4
FFDFF4
FFDFF4
FFDFF4
FFDFF4
FD00B4
FFFFF4
FFFFF4
7FFFE0
1BFF80
ENDCHAR
STARTCHAR uni01D1
ENCODING 465
SWIDTH 578 0
DWIDTH 10 0
BBX 11 17 0 0
BITMAP
02EA40
0BBB80
0B7780
079B80
03EF40
1FFF80
7C54A0
FDFDB4
FDFDB4
FDFDB4
FDFDB4
FDFDB4
FD00F4
FFFFF4
FFFFF4
7FFFE0
1BFF80
ENDCHAR
STARTCHAR uni01D3
ENCODING 467
SWIDTH 578 0
DWIDTH 10 0
BBX 11 17 0 0
BITMAP
02EB40
07BBC0
077780
07D780
03EF40
1BFF80
79FDA0
F9FDB4
F9FDB4
F9FDB4
F9FDB4
F9FDB4
FD00F4
FFFFF4
FFFFF4
7FFFE0
1BFF80
ENDCHAR
STARTCHAR uni01D4
ENCODING 468
SWIDTH 578 0
DWIDTH 10 0
BBX 11 17 0 0
BITMAP
02EB40
07BBC0
0777C0
07D780
03EF40
1BFF80
79FDA0
F9FDB4
F9FDB4
F9FDB4
F9FDB4
F9FDB4
FD00F4
FFFFF4
FFFFF4
7FFFE0
1BFF80
ENDCHAR
STARTCHAR uni0200
ENCODING 512
SWIDTH 578 0
DWIDTH 10 0
BBX 11 18 0 0
BITMAP
044000
1FF400
2BBC00
3DDE00
1EEB00
0BFB40
1FFF80
7D55E0
FDF9F4
FCFCF4
FCA4F4
FCA8F4
F9FDB4
F9FDB4
FFFFF4
FFFFF4
7FFFE0
1BFF80
ENDCHAR
STARTCHAR uni0201
ENCODING 513
SWIDTH 578 0
DWIDTH 10 0
BBX 11 18 0 0
BITMAP
044000
1FF400
2BBC00
3DDE00
1EEB00
0BFB40
1FFF80
7D55E0
FFF9F4
FFF9F4
FD55F4
F9F9F4
F9F9F4
FC01F4
FFFFF4
FFFFF4
7FFFE0
1BFF80
ENDCHAR
STARTCHAR uni0202
ENCODING 514
SWIDTH 578 0
DWIDTH 10 0
BBX 11 17 0 0
BITMAP
01A900
0BFF80
1FEFD0
1F13D0
0FFFC0
1FFF80
7D55E0
FDF9F4
FCFCF4
FCA4F4
FCA8F4
F9FDB4
F9FDB4
FFFFF4
FFFFF4
7FFFE0
1BFF80
ENDCHAR
STARTCHAR uni0203
ENCODING 515
SWIDTH 578 0
DWIDTH 10 0
BBX 11 17 0 0
BITMAP
01A900
0BFF80
1FEFD0
1F13D0
0FFFC0
1FFF80
7D55E0
FFF9F4
FFF9F4
FD55F4
F9F9F4
F9F9F4
FC01F4
FFFFF4
FFFFF4
7FFFE0
1BFF80
ENDCHAR
STARTCHAR uni0204
ENCODING 516
SWIDTH 578 0
DWIDTH 10 0
BBX 11 18 0 0
BITMAP
044000
1FF400
2BBC00
3DDE00
1EEB00
0BFB40
1FFF80
7E55E0
FEBFF4
FEBFF4
FE02F4
FEBFF4
FEBFF4
FE00F4
FFFFF4
FFFFF4
7FFFE0
1BFF80
ENDCHAR
STARTCHAR uni0205
ENCODING 517
SWIDTH 578 0
DWIDTH 10 0
BBX 11 18 0 0
BITMAP
044000
1FF400
2BBC00
3DDE00
1EEB00
0BFB40
1FFF80
7855E0
F9F9F4
F955F4
F9AAF4
F9FFF4
F9ABF4
FD56F4
FFFFF4
FFFFF4
7FFFE0
1BFF80
ENDCHAR
STARTCHAR uni0206
ENCODING 518
SWIDTH 578 0
DWIDTH 10 0
BBX 11 17 0 0
BITMAP
01A900
0BFF80
1FEFD0
1F13D0
0FFFC0
1FFF80
7E55E0
FEBFF4
FEBFF4
FE02F4
FEBFF4
FEBFF4
FE00F4
FFFFF4
FFFFF4
7FFFE0
1BFF80
ENDCHAR
STARTCHAR uni0207
ENCODING 519
SWIDTH 578 0
DWIDTH 10 0
BBX 11 17 0 0
BITMAP
01A900
0BFF80
1FEFD0
1F13D0
0FFFC0
1FFF80
7855E0
F9F9F4
F955F4
F9AAF4
F9FFF4
F9ABF4
FD56F4
FFFFF4
FFFFF4
7FFFE0
1BFF80
ENDCHAR
STARTCHAR uni0208
ENCODING 520
SWIDTH 578 0
DWIDTH 10 0
BBX 11 18 0 0
BITMAP
044000
1FF400
2BBC00
3DDE00
1EEB00
0BFB40
1FFF80
7D45E0
FFDFF4
FFDFF4
FFDFF4
FFDFF4
FFDFF4
FD00B4
FFFFF4
FFFFF4
7FFFE0
1BFF80
ENDCHAR
STARTCHAR uni0209
ENCODING 521
SWIDTH 578 0
DWIDTH 10 0
BBX 11 18 0 0
BITMAP
044000
1FF400
2BBC00
3DDE00
1EEB00
0BFB40
1FFF80
7D45E0
FFDFF4
FFDFF4
FFDFF4
FFDFF4
FFDFF4
FD00B4
FFFFF4
FFFFF4
7FFFE0
1BFF80
ENDCHAR
STARTCHAR uni020A
ENCODING 522
SWIDTH 578 0
DWIDTH 10 0
BBX 11 17 0 0
BITMAP
01A900
0BFF80
1FEFD0
1F13D0
0FFFC0
1FFF80
7D45E0
FFDFF4
FFDFF4
FFDFF4
FFDFF4
FFDFF4
FD00B4
FFFFF4
FFFFF4
7FFFE0
1BFF80
ENDCHAR
STARTCHAR uni020B
ENCODING 523
SWIDTH 578 0
DWIDTH 10 0
BBX 11 17 0 0
BITMAP
01A900
0BFF80
1FEFD0
1F13D0
0FFFC0
1FFF80
7D45E0
FFDFF4
FFDFF4
FFDFF4
FFDFF4
FFDFF4
FD00B4
FFFFF4
FFFFF4
7FFFE0
1BFF80
ENDCHAR
STARTCHAR uni020C
ENCODING 524
SWIDTH 578 0
DWIDTH 10 0
BBX 11 18 0 0
BITMAP
044000
1FF400
2BBC00
3DDE00
1EEB00
0BFB40
1FFF80
7C54A0
FDFDB4
FDFDB4
FDFDB4
FDFDB4
FDFDB4
FD00F4
FFFFF4
FFFFF4
7FFFE0
1BFF80
ENDCHAR
STARTCHAR uni020D
ENCODING 525
SWIDTH 578 0
DWIDTH 10 0
BBX 11 18 0 0
BITMAP
044000
1FF400
2BBC00
3DDE00
1EEB00
0BFB40
1FFF80
7C54A0
FDFDB4
FDFDB4
FDFDB4
FDFDB4
FDFDB4
FD00F4
FFFFF4
FFFFF4
7FFFE0
1BFF80
ENDCHAR
STARTCHAR uni020E
ENCODING 526
SWIDTH 578 0
DWIDTH 10 0
BBX 11 17 0 0
BITMAP
01A900
0BFF80
1FEFD0
1F13D0
0FFFC0
1FFF80
7C54A0
FDFDB4
FDFDB4
FDFDB4
FDFDB4
FDFDB4
FD00F4
FFFFF4
FFFFF4
7FFFE0
1BFF80
ENDCHAR
STARTCHAR uni020F
ENCODING 527
SWIDTH 578 0
DWIDTH 10 0
BBX 11 17 0 0
BITMAP
01A900
0BFF80
1FEFD0
1F13D0
0FFFC0
1FFF80
7C54A0
FDFDB4
FDFDB4
FDFDB4
FDFDB4
FDFDB4
FD00F4
FFFFF4
FFFFF4
7FFFE0
1BFF80
ENDCHAR
STARTCHAR uni0210
ENCODING 528
SWIDTH 578 0
DWIDTH 10 0
BBX 11 18 0 0
BITMAP
044000
1FF400
2BBC00
3DDE00
1EEB00
0BFB40
1FFF80
7C55E0
FCFCF4
FCFDF4
FC02F4
FCF9F4
FCFCF4
FCFCF4
FFFFF4
FFFFF4
7FFFE0
1BFF80
ENDCHAR
STARTCHAR uni0211
ENCODING 529
SWIDTH 578 0
DWIDTH 10 0
BBX 11 18 0 0
BITMAP
044000
1FF400
2BBC00
3DDE00
1EEB00
0BFB40
1FFF80
7C55E0
FCFCF4
FCFDF4
FC02F4
FCF9F4
FCFCF4
FCFCF4
FFFFF4
FFFFF4
7FFFE0
1BFF80
ENDCHAR
STARTCHAR uni0212
ENCODING 530
SWIDTH 578 0
DWIDTH 10 0
BBX 11 17 0 0
BITMAP
01A900
0BFF80
1FEFD0
1F13D0
0FFFC0
1FFF80
7C55E0
FCFCF4
FCFDF4
FC02F4
FCF9F4
FCFCF4
FCFCF4
FFFFF4
FFFFF4
7FFFE0
1BFF80
ENDCHAR
STARTCHAR uni0213
ENCODING 531
SWIDTH 578 0
DWIDTH 10 0
BBX 11 17 0 0
BITMAP
01A900
0BFF80
1FEFD0
1F13D0
0FFFC0
1FFF80
7C55E0
FCFCF4
FCFDF4
FC02F4
FCF9F4
FCFCF4
FCFCF4
FFFFF4
FFFFF4
7FFFE0
1BFF80
ENDCHAR
STARTCHAR uni0214
ENCODING 532
SWIDTH 578 0
DWIDTH 10 0
BBX 11 18 0 0
BITMAP
044000
1FF400
2BBC00
3DDE00
1EEB00
0BFB40
1FFF80
79FDA0
F9FDB4
F9FDB4
F9FDB4
F9FDB4
F9FDB4
FD00F4
FFFFF4
FFFFF4
7FFFE0
1BFF80
ENDCHAR
STARTCHAR uni0215
ENCODING 533
SWIDTH 578 0
DWIDTH 10 0
BBX 11 18 0 0
BITMAP
044000
1FF400
2BBC00
3DDE00
1EEB00
0BFB40
1FFF80
79FDA0
F9FDB4
F9FDB4
F9FDB4
F9FDB4
F9FDB4
FD00F4
FFFFF4
FFFFF4
7FFFE0
1BFF80
ENDCHAR
STARTCHAR uni0216
ENCODING 534
SWIDTH 578 0
DWIDTH 10 0
BBX 11 17 0 0
BITMAP
01A900
0BFF80
1FEFD0
1F13D0
0FFFC0
1FFF80
79FDA0
F9FDB4
F9FDB4
F9FDB4
F9FDB4
F9FDB4
FD00F4
FFFFF4
FFFFF4
7FFFE0
1BFF80
ENDCHAR
STARTCHAR uni0217
ENCODING 535
SWIDTH 578 0
DWIDTH 10 0
BBX 11 17 0 0
BITMAP
01A900
0BFF80
1FEFD0
1F13D0
0FFFC0
1FFF80
79FDA0
F9FDB4
F9FDB4
F9FDB4
F9FDB4
F9FDB4
FD00F4
FFFFF4
FFFFF4
7FFFE0
1BFF80
ENDCHAR
STARTCHAR uni0218
ENCODING 536
SWIDTH 578 0
DWIDTH 10 0
BBX 11 12 0 0
BITMAP
1FAA80
7D55E0
FCFFF4
FCBFF4
FE54F4
FFFDB4
FFFDB4
FD01F4
FFEFF4
FFCBF4
7FDFE0
1BFF80
ENDCHAR
STARTCHAR uni0219
ENCODING 537
SWIDTH 578 0
DWIDTH 10 0
BBX 11 12 0 0
BITMAP
1FAA80
7D55E0
FCFFF4
FCBFF4
FE54F4
FFFDB4
FFFDB4
FD01F4
FFEFF4
FFCBF4
7FDFE0
1BFF80
ENDCHAR
STARTCHAR uni021A
ENCODING 538
SWIDTH 578 0
DWIDTH 10 0
BBX 11 12 0 0
BITMAP
1EAA80
7D45E0
FFDFF4
FFDFF4
FFDFF4
FFDFF4
FFDFF4
FFDFF4
FFEFF4
FFCBF4
7FEFE0
1BFF80
ENDCHAR
STARTCHAR uni021B
ENCODING 539
SWIDTH 578 0
DWIDTH 10 0
BBX 11 12 0 0
BITMAP
1EAA80
7D45E0
FFDFF4
FFDFF4
FFDFF4
FFDFF4
FFDFF4
FFDFF4
FFEFF4
FFCBF4
7FEFE0
1BFF80
ENDCHAR
STARTCHAR circumflex
ENCODING 710
SWIDTH 355 0
DWIDTH 6 0
BBX 7 7 0 0
BITMAP
0500
2FC0
3AE0
B5F0
F6B4
FFB4
6AA0
ENDCHAR
STARTCHAR caron
ENCODING 711
SWIDTH 355 0
DWIDTH 6 0
BBX 7 6 0 0
BITMAP
6AE0
FFB4
F6B4
B5F0
7AE0
2A90
ENDCHAR
STARTCHAR breve
ENCODING 728
SWIDTH 428 0
DWIDTH 8 0
BBX 8 6 0 0
BITMAP
0100
2FF4
BFFD
FBAE
B97E
7FF8
ENDCHAR
STARTCHAR dotaccent
ENCODING 729
SWIDTH 428 0
DWIDTH 8 0
BBX 8 6 0 0
BITMAP
0100
2FF4
BFFD
FDBE
FEFE
7FFC
ENDCHAR
STARTCHAR ring
ENCODING 730
SWIDTH 368 0
DWIDTH 7 0
BBX 7 6 0 0
BITMAP
0640
7FE0
B574
E778
F5B8
BFF4
ENDCHAR
STARTCHAR ogonek
ENCODING 731
SWIDTH 101 0
DWIDTH 2 0
BBX 2 3 0 -3
BITMAP
90
80
60
ENDCHAR
STARTCHAR tilde
ENCODING 732
SWIDTH 428 0
DWIDTH 8 0
BBX 8 6 0 0
BITMAP
0A90
7FFC
BFFE
FAEE
E56E
7FFC
ENDCHAR
STARTCHAR hungarumlaut
ENCODING 733
SWIDTH 419 0
DWIDTH 8 0
BBX 8 7 0 0
BITMAP
0110
0FF8
2EEC
7AAD
B778
FFF4
AA90
ENDCHAR
STARTCHAR uni030F
ENCODING 783
SWIDTH 419 0
DWIDTH 8 0
BBX 8 6 0 0
BITMAP
3FE0
ABB4
F778
7AAD
2EEE
0AA9
ENDCHAR
STARTCHAR mu
ENCODING 956
SWIDTH 578 0
DWIDTH 10 0
BBX 11 12 0 0
BITMAP
1AFE40
79FDA0
F9FDB4
F9FDB4
F9FDB4
F9FDB4
F9FDB4
F800F4
FEFFF4
FFFFF4
7FFFE0
1BFF80
ENDCHAR
STARTCHAR pi
ENCODING 960
SWIDTH 578 0
DWIDTH 10 0
BBX 11 12 0 0
BITMAP
1FEF80
7DA9E0
F75774
EAB7A4
DE67D4
DEA6D4
E9FAA4
F6FE74
FE56F4
FFFFF4
7FFFE0
1BFF80
ENDCHAR
STARTCHAR uni1E60
ENCODING 7776
SWIDTH 578 0
DWIDTH 10 0
BBX 11 17 0 0
BITMAP
001000
02FF40
0BFFD0
0FDBE0
0FEFD0
1FFFC0
7D55E0
FCFFF4
FCBFF4
FE54F4
FFFDB4
FFFDB4
FD01F4
FFFFF4
FFFFF4
7FFFE0
1BFF80
ENDCHAR
STARTCHAR uni1E8E
ENCODING 7822
SWIDTH 578 0
DWIDTH 10 0
BBX 11 17 0 0
BITMAP
001000
06FF40
0FFFD0
1FDFD0
0FEFD0
1FFFC0
7DBCE0
FE75F4
FF33F4
FF97F4
FFCBF4
FFCFF4
FFCFF4
FFFFF4
FFFFF4
7FFFE0
1BFF80
ENDCHAR
STARTCHAR uni1E8F
ENCODING 7823
SWIDTH 578 0
DWIDTH 10 0
BBX 11 17 0 0
BITMAP
001000
06FF40
0FFFD0
1FDFD0
0FEFD0
1FFFC0
7DBCE0
FE75F4
FF33F4
FF97F4
FFCBF4
FFCFF4
FFCFF4
FFFFF4
FFFFF4
7FFFE0
1BFF80
ENDCHAR
STARTCHAR uni1EBC
ENCODING 7868
SWIDTH 578 0
DWIDTH 10 0
BBX 11 18 0 0
BITMAP
01A900
07FF80
0FFFD0
1FBAE0
0E52D0
0BFF80
1FAA80
7E55E0
FEBFF4
FEBFF4
FE02F4
FEBFF4
FEBFF4
FE00F4
FFFFF4
FFFFF4
7FFFE0
1BFF80
ENDCHAR
STARTCHAR uni1EF8
ENCODING 7928
SWIDTH 578 0
DWIDTH 10 0
BBX 11 18 0 0
BITMAP
01A900
07FF80
0FFFD0
1FBAD0
0E52D0
0BFF80
1EFE80
7DBCE0
FE75F4
FF33F4
FF97F4
FFCBF4
FFCFF4
FFCFF4
FFFFF4
FFFFF4
7FFFE0
1BFF80
ENDCHAR
STARTCHAR uni1EF9
ENCODING 7929
SWIDTH 578 0
DWIDTH 10 0
BBX 11 18 0 0
BITMAP
01A900
07FF80
0FFFD0
1FBAD0
0E52D0
0BFF80
1EFE80
7DBCE0
FE75F4
FF33F4
FF97F4
FFCBF4
FFCFF4
FFCFF4
FFFFF4
FFFFF4
7FFFE0
1BFF80
ENDCHAR
STARTCHAR endash
ENCODING 8211
SWIDTH 428 0
DWIDTH 8 0
BBX 8 12 0 0
BITMAP
1FE4
7FFC
FFFE
F42E
FFFE
FFFE
FFFE
FFFE
FFFE
FFFE
7FFC
1BE0
ENDCHAR
STARTCHAR emdash
ENCODING 8212
SWIDTH 428 0
DWIDTH 8 0
BBX 8 12 0 0
BITMAP
1BE4
7FFC
FFFE
0000
FFFE
FFFE
FFFE
FFFE
FFFE
FFFE
7FFC
1BE0
ENDCHAR
STARTCHAR quoteleft
ENCODING 8216
SWIDTH 428 0
DWIDTH 8 0
BBX 8 12 0 0
BITMAP
1FE4
7DBC
FD7E
FFFE
FFFE
FFFE
FFFE
FFFE
FFFE
FFFE
7FFC
1BE0
ENDCHAR
STARTCHAR quoteright
ENCODING 8217
SWIDTH 428 0
DWIDTH 8 0
BBX 8 12 0 0
BITMAP
1EA4
7D7C
FEBE
FFFE
FFFE
FFFE
FFFE
FFFE
FFFE
FFFE
7FFC
1BE0
ENDCHAR
STARTCHAR quotesinglbase
ENCODING 8218
SWIDTH 428 0
DWIDTH 8 0
BBX 8 12 0 0
BITMAP
1FE4
7FFC
FFFE
FFFE
FFFE
FFFE
FFFE
FD7E
FEBE
FFFE
7FFC
1BE0
ENDCHAR
STARTCHAR quotedblleft
ENCODING 8220
SWIDTH 428 0
DWIDTH 8 0
BBX 8 12 0 0
BITMAP
1BE4
7A7C
F52E
FFFE
FFFE
FFFE
FFFE
FFFE
FFFE
FFFE
7FFC
1BE0
ENDCHAR
STARTCHAR quotedblright
ENCODING 8221
SWIDTH 428 0
DWIDTH 8 0
BBX 8 12 0 0
BITMAP
1AA4
785C
FDAE
FFFE
FFFE
FFFE
FFFE
FFFE
FFFE
FFFE
7FFC
1BE0
ENDCHAR
STARTCHAR quotedblbase
ENCODING 8222
SWIDTH 428 0
DWIDTH 8 0
BBX 8 12 0 0
BITMAP
1FE4
7FFC
FFFE
FFFE
FFFE
FFFE
FFFE
F85E
FDAE
FFFE
7FFC
1BE0
ENDCHAR
STARTCHAR dagger
ENCODING 8224
SWIDTH 578 0
DWIDTH 10 0
BBX 11 12 0 0
BITMAP
1FEF80
7FDFE0
FF42F4
FFDBF4
FFDFF4
FFDFF4
FFDFF4
FFDFF4
FFFFF4
FFFFF4
7FFFE0
1BFF80
ENDCHAR
STARTCHAR daggerdbl
ENCODING 8225
SWIDTH 578 0
DWIDTH 10 0
BBX 11 12 0 0
BITMAP
1FEF80
7FDFE0
FF42F4
FFDBF4
FFDFF4
FFDBF4
FF46F4
FFDFF4
FFFFF4
FFFFF4
7FFFE0
1BFF80
ENDCHAR
STARTCHAR bullet
ENCODING 8226
SWIDTH 578 0
DWIDTH 10 0
BBX 11 12 0 0
BITMAP
1FFF80
7FABE0
FC00F4
FC00B4
FC00B4
FC00B4
FC00F4
FE56F4
FFFFF4
FFFFF4
7FFFE0
1BFF80
ENDCHAR
STARTCHAR ellipsis
ENCODING 8230
SWIDTH 578 0
DWIDTH 10 0
BBX 11 12 0 0
BITMAP
1FFF80
7FFFE0
FFFFF4
FFFFF4
FFFFF4
FFFFF4
FFFFF4
F698F4
FFFFF4
FFFFF4
7FFFE0
1BFF80
ENDCHAR
STARTCHAR perthousand
ENCODING 8240
SWIDTH 640 0
DWIDTH 12 0
BBX 12 12 0 0
BITMAP
1FFFE0
56AFFC
996FFD
823FFE
FE7BEE
FD8551
FC8961
FEE69A
FFFFFE
FFFFFD
7FFFFC
1BFFE0
ENDCHAR
STARTCHAR guilsinglleft
ENCODING 8249
SWIDTH 578 0
DWIDTH 10 0
BBX 11 12 0 0
BITMAP
1FFF80
7FFBE0
FFE7F4
FFDFF4
FF6FF4
FF6FF4
FFDFF4
FFE7F4
FFFBF4
FFFFF4
7FFFE0
1BFF80
ENDCHAR
STARTCHAR guilsinglright
ENCODING 8250
SWIDTH 578 0
DWIDTH 10 0
BBX 11 12 0 0
BITMAP
1FFF80
7FBFE0
FF6FF4
FFDFF4
FFE7F4
FFE7F4
FFDFF4
FF6FF4
FFBFF4
FFFFF4
7FFFE0
1BFF80
ENDCHAR
STARTCHAR fraction
ENCODING 8260
SWIDTH 428 0
DWIDTH 8 0
BBX 8 12 0 0
BITMAP
1FA4
7F7C
FE7E
FEBE
FDBE
FDFE
FCFE
FDFE
FFFE
FFFE
7FFC
1BE0
ENDCHAR
STARTCHAR Euro
ENCODING 8364
SWIDTH 578 0
DWIDTH 10 0
BBX 11 12 0 0
BITMAP
1FAB80
7C56E0
F9FFF4
E05FF4
F9AFF4
F46FF4
F9FFF4
FC02F4
FFFFF4
FFFFF4
7FFFE0
1BFF80
ENDCHAR
STARTCHAR trademark
ENCODING 8482
SWIDTH 578 0
DWIDTH 10 0
BBX 11 12 0 0
BITMAP
1FFF80
7FFFE0
FFFFF4
FABEF4
F985F4
FD95F4
FEFEF4
FFFFF4
FFFFF4
FFFFF4
7FFFE0
1BFF80
ENDCHAR
STARTCHAR product
ENCODING 8719
SWIDTH 578 0
DWIDTH 10 0
BBX 11 12 0 0
BITMAP
1FEF80
7DA9E0
F75674
EB7AA4
DF7AD4
DF17D4
EB7FA4
F6BE74
FE56F4
FFFFF4
7FFFE0
1BFF80
ENDCHAR
STARTCHAR minus
ENCODING 8722
SWIDTH 428 0
DWIDTH 8 0
BBX 8 12 0 0
BITMAP
1FE4
7FFC
FFFE
F42E
FFFE
FFFE
FFFE
FFFE
FFFE
FFFE
7FFC
1BE0
ENDCHAR
STARTCHAR notequal
ENCODING 8800
SWIDTH 578 0
DWIDTH 10 0
BBX 11 12 0 0
BITMAP
1FFF80
7FFBE0
FE96F4
FE4AF4
F906F4
FE2BF4
FFFFF4
FFFFF4
FFFFF4
FFFFF4
7FFFE0
1BFF80
ENDCHAR
STARTCHAR uni2706
ENCODING 9990
SWIDTH 578 0
DWIDTH 10 0
BBX 11 12 0 0
BITMAP
1FEF80
7FEBE0
FFAAF4
FD6AF4
FC7FF4
FDBFF4
FE3FF4
FF46F4
FFE6F4
FFFFF4
7FFFE0
1BFF80
ENDCHAR
STARTCHAR uni2708
ENCODING 9992
SWIDTH 578 0
DWIDTH 10 0
BBX 11 12 0 0
BITMAP
155540
40A410
402004
462604
41FC04
407004
402004
402004
400004
406004
406010
155540
ENDCHAR
STARTCHAR uniF6D6
ENCODING 63190
SWIDTH 419 0
DWIDTH 8 0
BBX 8 6 0 0
BITMAP
3FE0
ABB4
F778
7AAD
2EEE
0AA9
ENDCHAR
STARTCHAR uFFFF2
ENCODING 1048562
SWIDTH 578 0
DWIDTH 10 0
BBX 11 12 0 0
BITMAP
155540
402010
402004
407004
41FC04
462644
402004
40A404
400004
406004
406010
155540
ENDCHAR
STARTCHAR uFFFF3
ENCODING 1048563
SWIDTH 578 0
DWIDTH 10 0
BBX 11 12 0 0
BITMAP
155540
402010
402804
41A904
407804
40B804
41AA04
402804
402004
400004
400010
155540
ENDCHAR
STARTCHAR uFFFF4
ENCODING 1048564
SWIDTH 578 0
DWIDTH 10 0
BBX 11 12 0 0
BITMAP
1FFF80
7FEFE0
FE9BF4
FDDDF4
FADEB4
FAFDF4
FDB9F4
FF9BF4
FFFFF4
FFFFF4
7FFFE0
1BFF80
ENDCHAR
STARTCHAR uFFFF5
ENCODING 1048565
SWIDTH 578 0
DWIDTH 10 0
BBX 11 12 0 0
BITMAP
1FFF80
7F5BE0
FFDFF4
F9D9F4
FE03F4
FF8FF4
FFDFF4
FFDFF4
FFFFF4
FF9FF4
7F9FE0
1BFF80
ENDCHAR
STARTCHAR uFFFF6
ENCODING 1048566
SWIDTH 578 0
DWIDTH 10 0
BBX 11 12 0 0
BITMAP
1FFF80
7FDFE0
FFDFF4
FF8FF4
FE03F4
F9D9F4
FFDFF4
FF5BF4
FFFFF4
FF9FF4
7F9FE0
1BFF80
ENDCHAR
STARTCHAR uFFFF8
ENCODING 1048568
SWIDTH 578 0
DWIDTH 10 0
BBX 11 12 0 0
BITMAP
1FFF80
7FAFE0
FF57F4
FE17F4
FD4AF4
F989F4
FC01F4
FD02F4
FF9BF4
FF9FF4
7F8FE0
1BFF80
ENDCHAR
STARTCHAR uFFFF9
ENCODING 1048569
SWIDTH 578 0
DWIDTH 10 0
BBX 11 12 0 0
BITMAP
155540
401010
416404
422204
452144
450204
424604
406404
400004
400004
400010
155540
ENDCHAR
STARTCHAR uFFFFB
ENCODING 1048571
SWIDTH 578 0
DWIDTH 10 0
BBX 11 12 0 0
BITMAP
1FFF80
7FCFE0
FDD7F4
FE57F4
FF4FF4
FE07F4
FD96F4
FFCBF4
FFEFF4
FFFFF4
7FFFE0
1BFF80
ENDCHAR
STARTCHAR uFFFFC
ENCODING 1048572
SWIDTH 578 0
DWIDTH 10 0
BBX 11 12 0 0
BITMAP
1FFF80
7D46E0
E6AA74
F965B4
FE56F4
FEEFF4
FF8FF4
FFFFF4
FFFFF4
FFFFF4
7FFFE0
1BFF80
ENDCHAR
STARTCHAR uFFFFD
ENCODING 1048573
SWIDTH 578 0
DWIDTH 10 0
BBX 11 12 0 0
BITMAP
1FFF80
7F5BE0
FD02F4
F801F4
F989F4
FD5AF4
FE17F4
FF5BF4
FFAFF4
FF9FF4
7F8FE0
1BFF80
ENDCHAR
STARTCHAR uFFFFE
ENCODING 1048574
SWIDTH 578 0
DWIDTH 10 0
BBX 11 12 0 0
BITMAP
1FFF80
79B5A0
E75B74
E65B74
F65B74
EB5B74
F56574
FFFFF4
FFFFF4
FFFFF4
7FFFE0
1BFF80
ENDCHAR
STARTCHAR uFFFFF
ENCODING 1048575
SWIDTH 578 0
DWIDTH 10 0
BBX 11 12 0 0
BITMAP
155540
40A410
42FD04
47FE04
467604
42A504
41E804
40A804
405004
406004
407010
155540
ENDCHAR
STARTCHAR .notdef
ENCODING -1
SWIDTH 1000 0
DWIDTH 18 0
BBX 1 1 0 0
BITMAP
00
ENDCHAR
STARTCHAR glyph1
ENCODING -1
SWIDTH 0 0
DWIDTH 0 0
BBX 1 1 0 0
BITMAP
00
ENDCHAR
ENDFONT
